<?xml version="1.0" standalone="no"?>
<!DOCTYPE svg PUBLIC "-//W3C//DTD SVG 20010904//EN"
 "http://www.w3.org/TR/2001/REC-SVG-20010904/DTD/svg10.dtd">
<svg version="1.0" xmlns="http://www.w3.org/2000/svg"
 width="1024.000000pt" height="1024.000000pt" viewBox="0 0 1024.000000 1024.000000"
 preserveAspectRatio="xMidYMid meet">
<metadata>
Created by potrace 1.14, written by Peter Selinger 2001-2017
</metadata>
<g transform="translate(0.000000,1024.000000) scale(0.100000,-0.100000)"
fill="#000000" stroke="none">
<path d="M5493 9273 c3 -5 -9 -8 -26 -7 -17 0 -47 -3 -66 -7 -20 -5 -62 -13
-94 -19 -36 -7 -55 -15 -51 -22 5 -7 2 -8 -5 -4 -11 7 -35 1 -96 -24 -11 -5
-37 -14 -58 -20 -20 -6 -35 -16 -32 -21 4 -5 -2 -6 -11 -2 -12 4 -15 3 -10 -5
4 -7 2 -10 -6 -7 -17 6 -194 -119 -190 -135 1 -6 -2 -9 -7 -6 -5 4 -14 -2 -20
-11 -9 -16 -12 -16 -21 -3 -5 8 -10 23 -10 33 0 10 -7 34 -16 55 l-15 37 -40
-43 c-24 -25 -37 -47 -33 -55 4 -6 3 -9 -1 -4 -5 4 -30 -14 -57 -40 -45 -44
-63 -73 -35 -57 8 5 8 3 -2 -9 -7 -9 -17 -14 -22 -12 -11 8 -31 -33 -23 -47 4
-6 3 -8 -3 -5 -5 3 -22 -19 -36 -49 -15 -31 -23 -53 -18 -50 5 4 12 2 15 -3 4
-6 -7 -8 -25 -6 -23 3 -30 1 -26 -9 3 -8 -1 -13 -10 -12 -9 0 -18 -5 -21 -13
-3 -8 0 -11 6 -7 6 3 13 2 17 -3 3 -6 -4 -8 -15 -6 -30 6 -65 -76 -80 -182
-10 -77 -5 -143 23 -286 1 -4 -43 -22 -98 -41 -138 -47 -237 -91 -228 -101 5
-4 2 -5 -4 -1 -19 11 -39 -4 -22 -16 10 -6 7 -7 -8 -3 -24 7 -183 -69 -183
-87 0 -5 5 -6 12 -2 7 4 8 3 4 -5 -6 -8 -12 -9 -20 -2 -9 8 -33 -2 -87 -36
-121 -77 -189 -129 -181 -139 4 -5 3 -6 -2 -2 -12 10 -48 -11 -41 -23 4 -5 1
-8 -7 -7 -7 2 -12 -3 -10 -10 1 -8 -2 -11 -9 -6 -7 4 -17 1 -23 -7 -6 -8 -20
-19 -31 -26 -11 -6 -19 -16 -17 -22 1 -6 -4 -10 -10 -9 -7 2 -12 -3 -10 -10 1
-8 -2 -11 -7 -7 -6 3 -43 -25 -83 -62 -40 -37 -74 -68 -76 -69 -2 -1 1 -13 8
-26 10 -20 9 -21 -3 -6 -7 9 -18 14 -24 10 -17 -11 -213 -233 -214 -243 -1 -5
-2 -13 -3 -18 0 -5 -5 -13 -10 -18 -5 -5 -6 -3 -2 5 4 6 5 12 3 12 -10 0 -112
-156 -109 -167 1 -6 -3 -15 -9 -19 -8 -4 -9 -3 -5 4 4 7 5 12 2 12 -11 0 -87
-141 -81 -150 3 -6 2 -10 -4 -10 -10 0 38 -54 49 -55 3 0 21 -16 40 -35 71
-69 124 -105 142 -94 10 6 9 3 -1 -9 -7 -9 -9 -17 -3 -17 5 0 12 -8 16 -17 3
-10 9 -25 12 -33 5 -13 4 -13 -5 0 -12 18 -12 18 -44 -50 -39 -82 -58 -163
-64 -280 -4 -90 -2 -114 16 -167 11 -34 21 -66 21 -71 0 -5 -37 -16 -82 -26
-47 -10 -76 -21 -69 -25 7 -4 -8 -8 -33 -8 -53 -1 -66 -8 -66 -33 0 -26 38
-33 170 -31 63 1 143 -1 178 -5 l62 -6 0 -99 0 -99 -72 6 c-48 4 -68 2 -59 -4
7 -5 9 -12 5 -15 -14 -8 -104 4 -104 14 0 11 -37 12 -43 2 -2 -5 -2 -2 -1 5 2
6 -1 12 -6 12 -5 0 -16 8 -26 18 -16 15 -42 17 -244 17 l-226 0 -76 -38 c-91
-45 -183 -135 -173 -171 5 -16 4 -17 -3 -7 -8 11 -15 1 -28 -40 -15 -45 -18
-101 -22 -351 -4 -294 5 -438 29 -491 7 -14 16 -24 22 -20 6 3 7 1 3 -6 -10
-15 13 -43 27 -34 6 3 7 1 3 -5 -7 -12 55 -82 73 -82 5 0 16 -6 23 -13 16 -15
82 -43 123 -52 16 -4 87 -6 158 -6 114 0 130 -2 148 -20 10 -10 28 -19 39 -19
11 0 20 -4 20 -9 0 -9 22 -8 62 3 16 5 25 12 22 17 -3 5 2 6 11 3 9 -4 33 -43
54 -88 34 -72 125 -233 140 -246 3 -3 7 -10 8 -15 2 -11 62 -114 126 -212 22
-35 44 -60 50 -56 6 4 7 1 2 -6 -4 -8 2 -25 14 -42 l22 -29 -38 -1 c-21 0
-294 0 -608 1 -313 1 -566 -2 -562 -6 8 -8 75 -13 435 -33 95 -5 178 -14 185
-20 7 -5 24 -11 37 -13 14 -2 31 -7 38 -11 8 -6 12 -2 12 12 0 17 6 21 34 21
19 0 38 -5 41 -10 3 -5 24 -10 46 -10 28 0 39 -4 39 -15 0 -18 -5 -18 -31 -5
-15 9 -19 7 -19 -6 0 -15 -10 -16 -87 -11 -49 3 -115 2 -148 -3 -37 -4 62 -8
258 -8 232 0 322 -4 333 -12 13 -11 18 -7 16 11 -1 4 8 4 20 1 13 -3 19 -1 15
5 -4 6 -1 11 6 10 34 -1 48 4 41 15 -4 6 -3 8 3 5 5 -3 34 1 64 9 67 18 277
60 344 69 75 10 90 15 74 26 -9 6 -10 9 -2 9 6 0 14 -4 18 -9 9 -15 44 -9 38
7 -5 11 -7 11 -14 0 -7 -10 -9 -9 -9 5 0 9 -8 25 -19 36 -10 10 -20 22 -22 27
-2 5 -40 27 -83 49 -44 22 -105 57 -135 78 -30 21 -61 35 -69 32 -7 -2 -11 -1
-8 4 8 12 -72 63 -86 55 -6 -4 -8 -3 -5 3 10 15 -23 26 -38 13 -9 -8 -15 -8
-20 0 -3 6 -10 8 -15 5 -5 -3 -11 -1 -14 4 -7 10 13 9 30 -2 6 -3 14 -4 17 0
12 12 -76 78 -91 69 -6 -3 -16 2 -23 12 -13 16 -13 16 6 2 19 -14 19 -14 6 3
-8 10 -20 16 -27 13 -8 -3 -13 -2 -11 2 2 9 -67 72 -80 72 -5 0 -16 9 -26 20
-10 12 -22 18 -28 14 -7 -4 0 -13 15 -23 14 -10 24 -20 21 -23 -3 -3 -17 4
-30 16 -16 14 -20 24 -14 32 7 8 2 24 -15 48 -13 20 -30 59 -37 86 -7 28 -18
49 -23 46 -6 -2 -30 -12 -53 -21 -54 -21 -72 -16 -65 21 6 34 82 114 109 114
16 0 24 13 39 63 10 34 24 73 31 86 6 14 10 28 7 33 -3 5 0 16 8 25 10 13 14
92 16 364 3 329 2 350 -16 386 -26 49 -68 92 -109 110 -48 20 -42 36 10 28 64
-10 94 -24 120 -59 31 -41 44 -85 51 -176 9 -124 47 -276 80 -319 5 -7 11 -20
12 -28 2 -8 10 -23 18 -32 9 -10 16 -23 16 -30 0 -7 5 -9 11 -5 6 3 3 -5 -6
-19 -9 -15 -14 -31 -10 -37 4 -6 2 -9 -4 -8 -12 3 -25 -17 -75 -118 -63 -127
-90 -220 -90 -309 0 -109 16 -138 144 -250 35 -30 272 -185 265 -173 -5 7 2 3
14 -10 32 -32 69 -55 80 -48 5 4 13 1 17 -5 5 -8 3 -9 -6 -4 -9 5 -11 4 -6 -3
4 -7 13 -12 20 -12 8 0 18 -6 24 -13 16 -19 160 -89 170 -83 4 3 16 -6 26 -19
10 -14 23 -22 29 -18 6 3 7 1 3 -6 -9 -13 12 -44 24 -36 4 3 7 -3 6 -13 0 -9
5 -16 12 -14 8 1 11 -2 8 -7 -8 -12 71 -95 98 -105 36 -12 2 -24 -134 -46
-366 -59 -596 -112 -583 -133 3 -6 1 -7 -6 -3 -15 10 -76 -31 -92 -60 -19 -36
-7 -462 16 -544 32 -118 154 -358 176 -344 5 3 6 -2 3 -10 -3 -9 -1 -16 5 -16
6 0 11 -6 11 -14 0 -7 7 -19 15 -26 9 -8 15 -8 15 -2 0 6 -5 13 -10 15 -6 3
-5 4 2 3 7 -2 12 -11 11 -20 0 -10 21 -41 47 -69 26 -29 60 -67 75 -85 18 -22
33 -31 44 -27 8 3 12 3 9 -1 -4 -3 0 -13 8 -22 14 -13 17 -13 26 -1 8 12 9 12
5 -1 -2 -8 5 -26 17 -39 l21 -23 -25 7 c-14 4 -31 10 -39 13 -9 3 -12 1 -7 -6
4 -7 2 -12 -6 -12 -8 0 -6 -5 5 -11 18 -10 18 -12 1 -30 -18 -20 -5 -21 243
-24 22 0 45 -4 50 -9 4 -5 -2 -5 -14 -2 -38 12 -26 -2 20 -23 112 -50 146 -63
231 -88 l91 -27 805 -4 c519 -2 830 1 875 8 83 12 246 70 238 83 -3 6 -1 7 5
3 6 -4 26 1 44 11 18 9 35 18 38 18 3 1 17 7 32 15 23 11 26 16 15 28 -10 13
-9 14 8 5 25 -14 58 8 179 117 101 91 121 113 198 216 5 7 3 18 -6 26 -12 12
-11 18 6 39 l19 24 -11 -24 c-9 -16 -9 -26 -1 -34 6 -6 12 -9 14 -6 83 118
187 344 171 370 -4 7 -3 9 3 6 5 -4 15 16 22 46 25 108 33 308 28 787 -4 405
-7 496 -21 554 -30 127 -72 230 -89 219 -6 -3 -7 -1 -3 5 6 11 -28 82 -61 127
-14 19 -15 19 -8 -5 5 -20 4 -22 -5 -8 -15 24 -2 46 40 68 48 25 107 93 122
142 9 30 8 53 -6 115 -19 87 -57 179 -84 200 -10 8 -11 11 -2 7 13 -7 13 -5
-1 16 -9 14 -32 55 -53 92 -20 36 -44 69 -52 72 -8 3 -12 11 -9 16 9 15 -44
82 -57 74 -7 -4 -8 -2 -4 4 9 15 -31 55 -46 46 -7 -4 -8 -3 -4 5 4 6 12 9 17
6 5 -3 6 1 3 9 -3 9 -11 13 -18 9 -6 -4 -4 2 4 12 12 14 12 19 2 23 -10 3 -10
7 -1 18 9 11 9 21 0 40 -6 15 -7 23 -1 19 6 -4 10 5 10 19 0 14 4 28 10 31 6
3 7 -1 4 -9 -4 -9 1 -18 10 -22 9 -3 14 -9 12 -13 -6 -10 50 -82 58 -74 4 4 5
1 1 -7 -3 -9 7 -29 25 -48 16 -18 29 -36 30 -40 0 -4 6 -14 14 -24 8 -9 13
-18 11 -20 -2 -2 4 -13 13 -25 l17 -21 62 30 c35 17 60 34 57 39 -3 5 3 6 12
2 13 -5 15 -3 9 7 -5 8 -4 11 3 6 12 -7 102 33 102 46 0 4 -10 4 -23 -1 -17
-7 -24 -6 -24 4 0 7 8 10 19 7 16 -4 22 5 20 29 -1 3 6 6 14 6 9 0 11 -4 5
-10 -5 -5 -7 -16 -4 -23 4 -11 8 -12 20 -3 11 10 14 55 13 248 l-2 236 36 82
c36 81 47 120 22 74 l-13 -24 1 30 c1 22 5 29 17 26 32 -9 39 128 13 233 -12
46 -20 62 -26 52 -6 -9 -7 -6 -3 8 7 26 -34 116 -48 107 -6 -3 -7 -1 -3 5 6
11 -67 132 -80 132 -3 0 -2 -5 2 -12 4 -7 3 -8 -5 -4 -6 4 -9 12 -6 17 4 5 -7
23 -24 39 -16 17 -27 30 -24 30 3 0 0 7 -7 15 -7 8 -17 12 -23 8 -5 -3 -7 -1
-4 4 9 15 -19 36 -41 31 -12 -4 -18 1 -18 13 0 10 5 15 11 11 6 -4 2 1 -8 10
-11 10 -23 16 -27 13 -4 -3 -10 5 -13 16 -3 12 -10 18 -16 14 -6 -3 -11 1 -11
11 0 14 -3 14 -15 4 -13 -11 -14 -10 -10 2 7 17 -24 44 -133 116 -34 24 -68
40 -74 36 -7 -5 -8 -2 -3 6 6 10 4 12 -9 7 -9 -4 -15 -3 -12 2 12 18 -248 126
-349 145 -16 3 -75 14 -130 26 -55 11 -156 26 -224 33 l-124 12 -1 32 c-1 17
2 29 5 27 4 -2 9 6 12 17 3 12 9 19 14 16 4 -3 51 -10 103 -16 252 -30 509
-89 611 -142 22 -10 39 -17 39 -14 0 3 17 -6 37 -20 21 -14 41 -25 46 -25 5 0
49 -27 98 -60 50 -34 95 -58 101 -54 7 4 8 3 4 -4 -7 -12 50 -59 66 -54 5 1 7
-2 4 -7 -8 -12 61 -64 74 -56 6 4 9 2 8 -3 -5 -16 42 -73 54 -66 6 4 8 3 5 -3
-8 -13 17 -36 28 -25 5 4 5 1 1 -6 -5 -8 6 -26 27 -47 19 -19 33 -35 30 -35
-3 0 0 -7 7 -15 7 -8 17 -12 22 -9 5 3 8 0 6 -7 -3 -17 40 -89 53 -89 5 0 8
-3 7 -7 0 -5 2 -16 7 -26 6 -15 10 -15 24 -5 14 11 14 11 3 -4 -11 -14 -10
-22 4 -50 30 -58 46 -130 53 -243 l8 -110 1 100 c1 66 -3 120 -14 155 -8 30
-17 64 -20 75 -4 14 9 34 45 70 27 27 47 53 45 57 -3 5 0 8 5 8 6 0 25 12 41
27 23 20 27 29 18 35 -10 7 -9 8 2 6 16 -2 60 22 60 34 0 4 16 23 36 41 l36
32 -75 110 c-41 61 -79 109 -85 108 -6 -2 -9 4 -6 12 4 8 1 15 -5 15 -6 0 -11
5 -11 10 0 10 -98 140 -106 140 -2 0 -1 -6 2 -14 3 -8 0 -17 -7 -22 -8 -4 -10
-3 -5 5 4 6 2 19 -6 28 -9 12 -9 15 0 9 21 -13 12 8 -18 41 -20 22 -35 31 -47
27 -12 -4 -14 -3 -6 3 9 6 0 22 -32 58 -25 28 -50 49 -56 47 -6 -1 -8 1 -5 6
10 16 -13 35 -46 37 -18 1 -32 5 -30 8 1 4 2 9 2 12 0 3 10 1 23 -6 12 -6 1
10 -25 35 -46 44 -67 59 -52 34 4 -7 3 -8 -4 -4 -6 4 -9 13 -5 21 5 14 -8 20
-32 15 -5 -1 -7 2 -3 5 9 10 -35 45 -55 45 -9 0 -19 4 -22 10 -4 6 1 7 12 4
16 -5 16 -4 -1 10 -11 9 -28 14 -37 11 -20 -7 -35 10 -18 21 8 4 9 3 5 -4 -4
-7 -2 -12 3 -12 19 0 12 16 -18 38 -21 15 -31 18 -34 9 -4 -7 -6 -6 -6 4 -1
20 -82 78 -100 71 -8 -2 -11 0 -8 5 4 6 -19 27 -49 48 -31 20 -53 32 -50 26 5
-7 1 -8 -9 -5 -9 4 -13 9 -10 12 18 18 -377 205 -515 243 -25 7 -50 17 -57 22
-7 5 -18 5 -25 1 -10 -6 -10 -4 1 9 17 21 41 146 41 215 0 45 -3 54 -22 62
-19 7 -20 9 -5 11 9 1 22 2 27 3 12 1 14 15 4 24 -4 4 -5 3 -2 -3 4 -5 -5 -11
-18 -11 -31 -2 -30 1 6 20 17 8 28 10 25 5 -4 -5 3 -9 15 -9 13 0 24 9 30 25
5 14 17 25 27 26 11 0 13 3 6 6 -10 3 -10 10 -2 26 7 12 8 19 4 15 -4 -4 -13
-2 -21 5 -7 7 -34 28 -59 47 -25 19 -45 38 -45 42 0 4 16 15 35 24 20 9 42 26
51 38 8 11 15 19 17 16 1 -2 26 13 54 35 29 22 50 42 45 46 -4 4 -25 10 -47
12 -22 3 -92 15 -155 26 -63 11 -157 22 -208 25 -52 3 -96 6 -98 9 -2 2 9 28
25 57 27 50 28 55 13 66 -15 11 -14 12 6 7 22 -5 23 -4 11 15 -7 11 -17 18
-23 15 -5 -3 -6 -1 -2 5 3 6 15 9 26 7 15 -3 25 6 40 34 10 21 16 41 13 45 -4
3 -2 6 4 6 6 0 13 6 16 14 8 19 -23 6 -170 -72 -62 -33 -113 -56 -113 -51 0 9
54 90 101 152 l21 27 -32 0 c-17 0 -29 -3 -27 -7z m-17 -71 c-17 -16 -18 -16
-5 5 7 12 15 20 18 17 3 -2 -3 -12 -13 -22z m122 -51 c11 -6 10 -10 -4 -15 -9
-3 -19 -4 -22 -1 -3 3 1 5 9 5 11 0 11 2 -1 10 -8 5 -10 10 -5 10 6 0 16 -4
23 -9z m42 -1 c0 -5 -5 -10 -11 -10 -5 0 -7 5 -4 10 3 6 8 10 11 10 2 0 4 -4
4 -10z m-293 -21 c-1 -10 -3 -16 -6 -14 -4 5 -51 -66 -80 -123 -24 -46 -56
-84 -65 -75 -3 3 -6 2 -6 -3 0 -6 5 -15 11 -21 8 -8 7 -13 -3 -18 -7 -5 -10
-5 -6 0 4 4 1 14 -7 22 -13 13 -19 12 -45 -7 -16 -12 -30 -26 -30 -31 0 -15
40 -10 46 6 4 8 10 12 16 9 14 -9 -23 -46 -39 -39 -9 3 -11 0 -7 -6 4 -6 0
-15 -7 -20 -8 -5 -9 -9 -3 -9 6 0 19 10 30 21 10 12 47 41 81 66 35 24 62 49
60 55 -1 6 5 13 13 15 13 4 13 3 0 -6 -9 -6 -10 -11 -3 -11 6 0 25 12 42 26
17 14 31 22 31 18 0 -4 8 0 18 8 9 9 34 21 54 29 27 9 34 16 25 22 -8 6 -6 7
7 3 10 -4 25 -1 32 5 22 18 18 -8 -7 -42 -11 -16 -18 -29 -14 -29 3 0 -6 -10
-20 -22 -14 -13 -28 -32 -29 -43 -2 -11 -8 -19 -14 -18 -6 1 -30 -21 -54 -49
-23 -28 -60 -64 -82 -80 -21 -15 -35 -28 -31 -28 4 0 23 11 42 26 18 14 37 22
43 19 5 -3 27 6 50 21 61 40 191 64 304 54 37 -3 70 -2 72 2 3 4 11 8 17 8 8
0 7 -4 -2 -9 -10 -7 4 -12 47 -17 34 -3 64 -10 66 -13 3 -4 -33 -26 -80 -50
-50 -25 -81 -47 -77 -53 3 -6 1 -8 -5 -4 -14 8 -86 -34 -75 -45 4 -4 35 -10
67 -13 33 -4 76 -10 97 -15 21 -5 41 -7 44 -5 3 2 1 -1 -5 -8 -5 -6 -19 -13
-30 -15 -12 -2 -55 -19 -96 -38 -41 -19 -78 -35 -83 -35 -5 0 -11 -3 -14 -7
-2 -5 -2 -2 -1 5 4 16 2 15 -40 -5 -30 -14 -34 -19 -23 -31 10 -13 9 -14 -9
-4 -16 9 -29 5 -70 -16 -27 -15 -71 -36 -99 -46 -71 -26 -74 -34 -13 -29 39 2
48 1 33 -7 -14 -6 12 -9 90 -8 l110 1 17 -52 c27 -78 38 -171 38 -341 0 -197
-15 -399 -36 -475 -9 -33 -17 -68 -18 -77 0 -9 -3 -15 -7 -13 -3 3 -15 -14
-25 -38 -10 -23 -45 -69 -76 -103 -32 -34 -55 -64 -52 -67 3 -3 0 -8 -7 -13
-8 -4 -10 -3 -5 4 12 20 -2 13 -51 -25 -27 -20 -77 -50 -113 -67 -56 -27 -76
-31 -145 -31 -90 1 -156 24 -232 82 -24 19 -49 31 -55 27 -6 -4 -8 -3 -5 3 3
5 -15 30 -41 54 -105 96 -158 197 -181 339 -32 199 -21 606 20 714 16 43 18
60 9 71 -8 9 -8 15 0 20 6 4 10 3 9 -2 -4 -21 3 -19 30 8 28 27 34 29 109 29
43 0 128 -9 188 -20 139 -25 186 -25 270 1 94 29 205 80 198 90 -3 5 -11 6
-17 2 -7 -4 -6 0 2 10 14 18 57 24 46 7 -3 -5 -13 -7 -23 -4 -14 5 -14 4 -2
-4 15 -11 70 13 70 31 0 5 -7 3 -16 -4 -14 -11 -18 -10 -30 6 -8 10 -14 25
-14 32 0 16 -12 17 -26 3 -7 -7 -9 -1 -6 19 3 19 21 44 58 76 30 27 54 54 54
62 0 12 -3 12 -16 -1 -8 -9 -20 -14 -25 -11 -5 4 -9 1 -9 -5 0 -6 -4 -9 -9 -5
-8 4 -74 -28 -131 -65 -43 -28 -88 -48 -94 -43 -3 4 19 30 49 58 50 47 53 52
28 47 -16 -3 -38 -15 -51 -27 -14 -15 -30 -21 -42 -18 -27 7 -36 23 -19 34 9
5 3 7 -18 5 -46 -6 -127 -61 -116 -79 3 -6 1 -7 -4 -4 -12 8 -87 -59 -79 -71
2 -4 -3 -8 -12 -8 -9 -1 -25 -5 -35 -9 -15 -6 -16 -4 -7 19 5 14 7 34 4 43 -5
14 -4 15 4 4 12 -16 27 2 18 24 -2 7 0 16 7 19 9 3 8 8 -3 15 -8 6 -10 11 -5
11 6 0 17 -6 24 -12 7 -7 11 -8 9 -3 -6 20 25 76 39 71 8 -3 12 -2 9 2 -3 5 4
14 14 22 10 8 17 17 14 21 -3 5 1 17 8 28 7 11 9 24 5 28 -5 4 -12 1 -16 -6
-5 -8 -14 -10 -21 -6 -9 6 -9 10 1 17 23 16 -33 -3 -58 -20 -26 -16 -30 -24
-9 -16 10 4 14 -1 13 -15 -2 -25 -25 -28 -34 -5 -5 14 -8 15 -17 3 -20 -26
-83 -68 -91 -61 -5 4 -5 2 -2 -4 3 -6 -25 -41 -63 -79 l-70 -68 0 36 c0 19 5
37 12 39 7 3 12 20 11 44 -2 27 0 33 6 20 7 -19 8 -18 15 5 12 38 16 53 18 71
1 9 5 15 9 12 15 -9 28 30 17 51 -10 18 -10 19 5 6 11 -9 17 -10 17 -2 0 6 6
11 13 11 7 0 18 9 25 21 11 17 11 20 0 14 -8 -4 -7 -1 2 7 8 8 21 20 29 28 9
10 11 10 6 2 -6 -11 -3 -11 14 0 12 7 21 16 21 21 0 4 4 6 9 2 5 -3 13 0 17 6
4 8 3 9 -4 5 -7 -4 -12 -3 -12 2 0 12 29 24 41 16 5 -3 9 -1 9 5 0 5 -6 11
-12 14 -7 3 -3 4 9 4 12 -1 19 -5 16 -10 -3 -5 6 -2 20 8 17 10 24 23 20 33
-3 12 -2 13 4 4 8 -10 18 -9 52 7 26 11 38 21 29 24 -7 3 -4 5 7 4 22 -2 135
33 135 42 0 3 11 7 24 7 18 1 24 -3 23 -17z m-252 -29 c-3 -5 -12 -10 -18 -10
-7 0 -6 4 3 10 19 12 23 12 15 0z m25 -10 c-6 -11 -15 -20 -20 -20 -6 0 -2 9
7 20 10 11 19 20 21 20 1 0 -2 -9 -8 -20z m201 -43 c-10 -9 -11 -8 -5 6 3 10
9 15 12 12 3 -3 0 -11 -7 -18z m216 -39 c-3 -8 -6 -5 -6 6 -1 11 2 17 5 13 3
-3 4 -12 1 -19z m36 7 c-3 -9 -8 -14 -10 -11 -3 3 -2 9 2 15 9 16 15 13 8 -4z
m27 -9 c0 -2 -8 -10 -17 -17 -16 -13 -17 -12 -4 4 13 16 21 21 21 13z m-59
-53 c-12 -20 -14 -14 -5 12 4 9 9 14 11 11 3 -2 0 -13 -6 -23z m-833 -103 c-1
-27 0 -46 5 -43 4 2 7 -1 7 -6 0 -6 -4 -11 -9 -11 -5 0 -12 -30 -16 -67 -11
-107 -13 -114 -44 -110 -24 3 -26 8 -29 60 -2 39 2 64 13 81 9 14 13 31 9 37
-4 7 -3 10 2 7 5 -3 20 29 34 71 26 80 35 74 28 -19z m1337 10 c3 -5 1 -10 -4
-10 -6 0 -11 5 -11 10 0 6 2 10 4 10 3 0 8 -4 11 -10z m-653 -22 c-7 -7 -12
-8 -12 -2 0 14 12 26 19 19 2 -3 -1 -11 -7 -17z m-342 -8 c0 -5 -5 -10 -11
-10 -5 0 -7 5 -4 10 3 6 8 10 11 10 2 0 4 -4 4 -10z m886 -65 c-11 -8 -25 -15
-30 -15 -6 1 0 7 14 15 32 19 40 18 16 0z m-1416 -5 c0 -5 -5 -10 -11 -10 -5
0 -7 5 -4 10 3 6 8 10 11 10 2 0 4 -4 4 -10z m1285 0 c-3 -5 -12 -10 -18 -10
-7 0 -6 4 3 10 19 12 23 12 15 0z m-118 -76 c-3 -3 -12 -4 -19 -1 -8 3 -5 6 6
6 11 1 17 -2 13 -5z m-1158 -79 c7 0 18 -11 23 -25 5 -13 6 -21 2 -17 -4 4
-13 -10 -21 -30 -17 -50 -16 -53 7 -53 18 0 20 -5 18 -44 -2 -24 -6 -42 -11
-39 -4 2 -7 -15 -6 -39 2 -53 -21 -182 -31 -171 -4 4 -14 40 -23 79 -21 87
-21 215 -2 269 8 22 15 51 15 65 0 14 4 21 8 15 4 -5 13 -10 21 -10z m1081
-79 c0 -3 -4 -8 -10 -11 -5 -3 -10 -1 -10 4 0 6 5 11 10 11 6 0 10 -2 10 -4z
m-353 -82 c-3 -3 -12 -4 -19 -1 -8 3 -5 6 6 6 11 1 17 -2 13 -5z m518 -123
c-4 -45 -11 -81 -16 -81 -9 0 -49 125 -49 153 0 16 48 28 64 16 4 -4 5 -44 1
-88z m-1351 -246 c5 -13 2 -16 -19 -15 -18 1 -68 -35 -91 -65 -27 -36 -54
-125 -54 -181 0 -27 -4 -32 -31 -38 -20 -4 -28 -10 -23 -17 4 -8 3 -9 -5 -5
-13 9 -122 -44 -115 -56 3 -4 -3 -5 -12 -1 -13 5 -15 3 -9 -7 5 -9 4 -11 -4
-6 -19 12 -257 -134 -243 -149 4 -5 1 -5 -6 -1 -16 10 -154 -93 -145 -107 3
-6 1 -7 -4 -4 -6 4 -16 0 -22 -7 -10 -11 -7 -18 11 -30 12 -9 18 -16 14 -16
-5 0 -18 7 -28 16 -14 14 -20 14 -33 4 -8 -7 -12 -16 -9 -21 3 -5 0 -8 -8 -7
-7 2 -12 -3 -11 -9 2 -7 -3 -12 -10 -10 -6 1 -11 -4 -9 -11 1 -8 -2 -11 -8 -7
-12 7 -120 -92 -117 -109 1 -6 -3 -10 -9 -9 -6 1 -28 -16 -49 -37 -34 -35 -37
-41 -24 -57 13 -16 12 -17 -3 -5 -14 12 -21 8 -52 -25 -21 -22 -34 -45 -32
-56 2 -10 0 -14 -6 -11 -6 4 -19 -4 -30 -17 -25 -31 -157 -230 -161 -244 -3
-9 -31 11 -110 81 -30 27 -46 101 -21 101 10 0 10 -6 3 -21 -10 -20 -10 -21 5
-2 9 11 16 24 16 29 0 4 7 15 15 24 8 8 13 18 10 23 -3 4 2 11 11 14 9 4 14 9
11 12 -3 4 5 18 19 33 15 15 23 34 20 45 -4 14 -2 16 6 8 9 -9 16 -4 30 19 10
17 15 35 12 41 -4 6 -3 8 4 5 9 -6 97 87 97 102 0 3 3 5 7 4 3 -1 11 4 18 12
8 10 9 19 0 34 -6 12 -9 21 -8 22 29 8 39 6 29 -4 -6 -6 -11 -16 -11 -21 0 -6
31 21 70 59 38 38 67 71 65 73 -2 3 10 12 28 21 17 9 31 22 29 30 -1 7 2 10 7
7 5 -3 25 12 44 33 20 22 37 37 40 35 3 -3 14 6 25 20 10 14 21 23 24 21 3 -3
13 5 24 17 10 12 13 18 5 13 -9 -5 -12 -4 -7 3 4 6 13 9 20 6 8 -3 17 0 22 7
4 7 3 10 -4 5 -6 -3 -13 -2 -16 2 -3 5 5 9 17 8 22 -2 61 21 67 39 5 17 34 33
49 27 10 -4 12 -1 6 8 -5 8 -4 11 2 7 14 -9 55 22 47 35 -4 7 -2 8 5 4 6 -4
39 8 74 28 97 56 95 53 74 68 -17 13 -17 14 2 14 11 0 19 -3 18 -6 -2 -6 8
-10 24 -10 5 0 7 5 3 12 -4 6 -3 8 4 5 13 -9 44 2 37 13 -3 4 1 7 8 7 21 -2
268 123 262 133 -3 5 0 8 7 5 7 -3 31 2 53 10 51 18 52 18 59 0z m1503 -10
c49 -21 187 -91 339 -171 66 -35 125 -60 129 -56 5 4 5 2 2 -4 -7 -13 49 -48
63 -39 6 4 9 2 8 -4 -4 -13 63 -62 75 -54 6 3 7 1 3 -5 -4 -7 -3 -12 2 -12 5
0 51 -31 103 -69 52 -38 97 -67 102 -64 4 2 6 -1 5 -9 -2 -7 3 -12 10 -10 8 1
11 -2 7 -7 -3 -6 4 -15 16 -22 31 -16 255 -241 313 -314 59 -73 83 -97 89 -87
2 4 2 1 1 -6 -4 -14 61 -114 68 -106 3 2 5 -2 5 -8 0 -14 63 -111 75 -116 4
-2 8 -15 8 -28 0 -18 -18 -42 -57 -80 -32 -29 -61 -54 -65 -54 -4 0 -23 27
-43 60 -20 33 -41 60 -47 60 -6 0 -9 3 -5 6 9 9 -112 164 -126 161 -7 -1 -11
5 -9 14 3 23 -252 284 -268 274 -8 -5 -11 -4 -7 2 9 14 -70 86 -85 77 -6 -4
-8 -3 -5 3 9 14 -29 47 -44 37 -7 -4 -10 -3 -6 3 9 14 -60 66 -75 57 -7 -4 -8
-3 -4 4 8 13 -50 46 -64 37 -5 -3 -7 0 -4 8 4 10 -13 26 -53 48 -32 19 -66 39
-75 44 -98 58 -130 75 -142 75 -7 0 -19 6 -25 14 -7 8 -41 25 -76 37 l-63 23
-5 56 c-2 30 -6 62 -9 70 -13 46 -20 60 -29 55 -5 -3 -6 0 -3 8 7 18 -60 75
-100 85 -16 4 -32 14 -34 21 -6 18 49 10 105 -14z m-1677 0 c-10 -12 -10 -15
1 -15 11 0 11 -2 -1 -10 -8 -5 -19 -10 -25 -10 -5 0 -3 5 5 10 13 8 13 10 1
10 -11 0 -9 4 5 15 25 19 30 19 14 0z m1643 -92 c-5 -12 -3 -14 7 -8 9 6 11 4
5 -4 -5 -9 -11 -9 -17 -3 -6 6 -7 15 -4 21 11 17 16 13 9 -6z m-1388 -45 c18
-61 18 -61 6 -53 -21 12 -19 -16 4 -91 14 -43 25 -89 25 -100 0 -43 -83 -39
-137 6 -95 82 -54 290 58 290 25 0 30 -5 44 -52z m1331 42 c44 -16 77 -72 82
-138 3 -50 0 -63 -26 -103 -34 -53 -82 -79 -130 -72 -32 5 -33 6 -30 53 2 27
6 46 9 44 4 -2 9 18 13 44 4 26 13 56 21 66 8 10 12 22 10 27 -3 4 5 5 17 1
14 -3 19 -2 14 6 -9 15 -39 15 -54 0 -19 -19 -26 -1 -12 32 11 27 34 49 51 50
3 0 19 -5 35 -10z m-1766 -20 c-8 -5 -19 -10 -25 -10 -5 0 -3 5 5 10 8 5 20
10 25 10 6 0 3 -5 -5 -10z m470 -89 c0 -5 -7 -12 -16 -15 -14 -5 -15 -4 -4 9
14 17 20 19 20 6z m-680 -36 c0 -2 -6 -5 -13 -8 -8 -3 -14 1 -14 8 0 7 6 11
14 8 7 -3 13 -6 13 -8z m-200 -119 c0 -3 -4 -8 -10 -11 -5 -3 -10 -1 -10 4 0
6 5 11 10 11 6 0 10 -2 10 -4z m730 -21 c0 -2 -9 -3 -19 -2 -11 0 -18 5 -15 9
4 6 34 0 34 -7z m-825 -45 c3 -5 1 -10 -4 -10 -6 0 -11 5 -11 10 0 6 2 10 4
10 3 0 8 -4 11 -10z m-29 -25 c-1 -8 -5 -17 -8 -21 -5 -4 -4 16 1 34 3 9 9 -1
7 -13z m-62 -33 c2 -4 -4 -8 -14 -8 -10 0 -16 4 -14 8 3 4 9 8 14 8 5 0 11 -4
14 -8z m1067 -118 c7 -9 14 -21 16 -28 1 -6 5 -23 9 -37 l6 -26 -93 -7 c-194
-15 -415 -63 -569 -125 -93 -37 -185 -89 -182 -101 1 -7 -2 -9 -8 -5 -14 9
-52 -14 -44 -27 4 -7 3 -8 -5 -4 -17 11 -74 -33 -62 -48 8 -9 7 -13 -4 -13 -8
0 -12 4 -9 9 3 4 0 8 -6 8 -6 0 -13 -7 -16 -15 -4 -8 -12 -15 -19 -15 -7 0
-18 -6 -24 -14 -10 -11 -8 -16 9 -21 12 -4 19 -9 17 -12 -3 -2 -15 1 -27 7
-21 11 -30 5 -111 -76 -81 -80 -110 -118 -76 -98 8 6 8 3 -1 -9 -8 -9 -19 -15
-25 -14 -5 1 -38 -41 -72 -95 -105 -164 -142 -313 -132 -530 4 -82 3 -128 -4
-128 -5 0 -12 14 -16 31 -4 22 -8 27 -15 17 -7 -9 -8 -7 -4 7 6 23 -17 169
-25 161 -7 -7 -1 88 11 171 5 35 5 76 0 93 -5 17 -5 32 1 35 5 4 9 -6 10 -22
0 -21 4 -15 18 27 10 30 27 73 39 94 12 22 19 43 16 48 -3 4 -1 8 4 8 13 0 64
79 57 90 -3 5 0 12 6 16 8 4 9 3 5 -4 -15 -25 3 -10 20 16 17 26 17 27 -2 12
-17 -13 -18 -13 -7 0 6 8 11 19 11 25 0 5 6 11 14 13 9 2 8 0 -2 -7 -8 -6 -10
-11 -4 -11 18 0 47 38 38 51 -4 7 -3 10 3 6 6 -4 16 0 22 7 9 11 9 16 0 22 -8
5 -9 3 -4 -6 5 -9 4 -11 -3 -6 -7 4 -17 17 -22 29 -9 19 -9 20 2 7 25 -28 62
-13 106 44 12 16 22 26 22 23 0 -3 12 5 26 18 21 20 24 28 15 39 -8 10 -9 16
-1 21 6 4 9 3 8 -2 -2 -4 2 -8 7 -8 6 0 9 4 7 8 -1 5 2 6 8 2 6 -3 7 -12 3
-18 -4 -7 15 6 43 28 27 22 51 43 52 47 2 5 8 6 13 2 5 -3 9 2 9 10 0 8 5 18
12 22 7 5 8 3 3 -5 -4 -8 5 -6 25 4 26 13 30 19 19 27 -10 6 -7 7 10 3 19 -6
23 -4 18 9 -3 8 -2 18 4 21 5 4 8 1 7 -7 -2 -7 2 -12 7 -11 20 3 175 80 171
84 -2 2 5 5 17 5 34 3 251 71 241 76 -5 3 -3 3 5 1 7 -2 52 3 100 11 47 8 132
20 189 27 61 7 98 16 90 21 -8 5 -9 8 -2 8 6 0 18 -7 25 -16z m1276 10 c-3 -3
-12 -4 -19 -1 -8 3 -5 6 6 6 11 1 17 -2 13 -5z m-2490 -49 c0 -8 -4 -12 -9 -9
-5 3 -6 10 -3 15 9 13 12 11 12 -6z m3628 -15 c10 -11 16 -20 13 -20 -3 0 -13
9 -23 20 -10 11 -16 20 -13 20 3 0 13 -9 23 -20z m-3652 -3 c3 -8 -1 -14 -8
-14 -7 0 -11 6 -8 14 3 7 6 13 8 13 2 0 5 -6 8 -13z m727 4 c0 -5 -7 -12 -16
-15 -14 -5 -15 -4 -4 9 14 17 20 19 20 6z m-884 -19 c0 -10 -6 -19 -13 -19 -8
0 -9 6 -2 19 5 10 11 18 12 18 2 0 3 -8 3 -18z m919 8 c-3 -5 -12 -10 -18 -10
-7 0 -6 4 3 10 19 12 23 12 15 0z m-990 -89 c3 -5 2 -12 -3 -15 -5 -3 -9 1 -9
9 0 17 3 19 12 6z m725 -6 c0 -2 -10 -9 -22 -15 -22 -11 -22 -10 -4 4 21 17
26 19 26 11z m3453 -68 c13 -20 13 -24 1 -24 -8 0 -12 2 -9 5 2 3 0 13 -6 23
-14 27 -4 24 14 -4z m-420 -15 c16 -18 16 -19 -3 -17 -11 1 -23 5 -27 10 -5 4
-2 4 6 0 11 -6 13 -4 8 8 -8 22 -4 21 16 -1z m485 -57 c-3 -3 -9 2 -12 12 -6
14 -5 15 5 6 7 -7 10 -15 7 -18z m-1741 -1 c-3 -3 -12 -4 -19 -1 -8 3 -5 6 6
6 11 1 17 -2 13 -5z m-2499 -29 c-3 -3 -9 2 -12 12 -6 14 -5 15 5 6 7 -7 10
-15 7 -18z m306 9 c3 -8 2 -12 -4 -9 -6 3 -10 10 -10 16 0 14 7 11 14 -7z
m156 1 c-7 -9 -15 -13 -19 -10 -3 3 1 10 9 15 21 14 24 12 10 -5z m225 5 c-3
-5 -12 -10 -18 -10 -7 0 -6 4 3 10 19 12 23 12 15 0z m1065 -50 c0 -42 -3 -50
-22 -55 -13 -4 -34 -18 -48 -30 -29 -27 -71 -45 -105 -45 -13 0 -31 -7 -39
-16 -11 -11 -16 -12 -16 -3 0 7 -10 0 -22 -17 -13 -16 -30 -30 -38 -32 -8 -2
-20 -10 -26 -17 -6 -8 -15 -11 -19 -7 -5 4 -5 1 -1 -5 4 -7 2 -13 -3 -13 -6 0
-11 -6 -11 -14 0 -10 -7 -12 -22 -8 -16 4 -19 2 -13 -8 5 -8 4 -11 -2 -7 -6 4
-32 -12 -57 -36 -36 -32 -45 -47 -41 -62 6 -17 5 -18 -5 -5 -9 11 -13 12 -17
3 -2 -7 -17 -13 -33 -13 -38 0 -61 -10 -53 -23 4 -6 -2 -8 -15 -5 -14 4 -20 2
-15 -5 4 -7 0 -8 -13 -3 -10 4 -15 4 -12 0 4 -3 -4 -17 -18 -31 -13 -13 -24
-28 -24 -33 0 -5 -7 -15 -15 -24 -12 -12 -13 -20 -4 -40 7 -14 16 -23 21 -20
5 3 8 2 7 -3 -1 -4 1 -16 5 -25 5 -11 -2 -38 -21 -75 l-28 -58 0 -350 0 -350
24 -40 c34 -57 52 -75 64 -68 5 3 7 1 3 -5 -8 -13 59 -67 111 -89 67 -28 241
-73 260 -67 12 4 14 3 6 -3 -16 -11 228 -76 254 -67 12 4 14 3 5 -3 -17 -12
261 -86 291 -78 15 4 18 3 9 -3 -9 -6 29 -20 115 -42 70 -18 155 -41 188 -51
33 -10 121 -34 195 -54 74 -20 163 -46 198 -57 37 -12 74 -17 90 -14 18 4 22
4 13 -2 -9 -7 11 -18 70 -37 93 -31 239 -97 280 -128 16 -11 32 -16 41 -12 7
5 10 5 6 0 -4 -4 21 -30 55 -59 158 -132 252 -278 300 -465 21 -83 22 -103 22
-611 0 -408 -3 -541 -14 -595 -22 -112 -90 -283 -140 -353 -17 -25 -21 -36
-12 -45 6 -6 11 -15 11 -21 0 -5 -6 -2 -12 7 -12 16 -16 14 -42 -19 -16 -21
-29 -43 -29 -50 0 -7 -3 -11 -7 -9 -4 3 -15 -4 -25 -15 -13 -15 -15 -23 -7
-33 9 -10 8 -14 -3 -14 -8 0 -12 4 -9 9 9 13 -13 9 -25 -5 -6 -8 -7 -17 -3
-21 4 -4 0 -6 -8 -4 -9 2 -14 -3 -12 -13 1 -11 -4 -16 -15 -15 -10 0 -18 -6
-18 -14 0 -8 -7 -15 -17 -15 -9 0 -27 -9 -40 -20 -35 -30 -120 -81 -178 -106
-30 -13 -47 -25 -40 -29 7 -4 -1 -7 -17 -7 -15 0 -64 -9 -108 -21 -155 -40
-222 -42 -915 -39 -366 2 -681 7 -700 10 -137 25 -289 75 -394 130 -44 23 -85
40 -91 39 -5 -2 -7 0 -3 4 4 3 -14 21 -40 38 -26 17 -62 46 -81 64 -19 18 -40
31 -47 28 -7 -3 -11 0 -8 7 2 7 -14 32 -37 57 -23 25 -55 65 -72 90 -17 25
-33 47 -36 50 -3 3 -14 22 -24 43 -9 21 -21 36 -26 33 -5 -4 -7 4 -4 16 4 19
3 20 -7 8 -10 -12 -11 -11 -6 9 3 15 -2 33 -15 49 -10 14 -19 30 -19 36 0 6 5
4 10 -4 15 -23 12 -3 -7 38 -12 29 -17 75 -19 204 l-3 167 28 20 c21 15 38 19
67 15 22 -2 32 -1 22 3 -10 5 16 8 60 9 50 0 89 6 110 16 18 9 29 12 26 6 -5
-7 4 -9 27 -5 19 4 111 14 204 22 94 9 203 19 243 24 l72 7 1 -145 c0 -80 2
-157 5 -170 6 -30 36 -81 45 -76 4 3 6 -3 5 -13 0 -10 6 -16 16 -16 10 1 15
-2 13 -7 -3 -4 7 -16 22 -26 25 -17 70 -18 623 -21 412 -2 611 0 647 8 57 12
147 66 136 82 -3 6 -2 8 4 5 5 -3 17 3 26 14 9 10 13 19 9 19 -4 0 1 5 10 11
11 6 15 16 11 26 -4 11 -2 14 5 9 6 -3 16 2 21 13 14 25 14 41 1 21 -7 -10
-10 -11 -10 -2 0 7 7 15 15 19 14 5 14 7 0 23 -13 14 -13 17 0 17 8 0 12 -4 9
-9 -3 -4 -1 -8 5 -8 18 0 22 84 19 410 -3 315 -4 326 -26 373 -13 27 -44 69
-69 95 -26 26 -40 38 -32 27 13 -18 12 -19 -2 -8 -9 7 -19 10 -23 6 -4 -4 -4
0 -1 9 8 19 -44 59 -80 62 -13 0 -21 4 -19 7 6 10 -75 31 -89 23 -6 -4 -8 -3
-4 2 9 10 -300 96 -326 90 -9 -2 -15 -1 -13 3 3 4 -52 22 -122 40 -70 19 -165
44 -212 57 -308 84 -512 134 -523 128 -7 -4 -9 -3 -4 1 10 12 -252 86 -283 80
-17 -4 -21 -3 -12 3 10 7 7 11 -15 16 -49 13 -204 77 -253 106 -32 19 -51 25
-58 18 -7 -7 -10 -5 -9 7 1 9 -7 22 -18 29 -11 6 -26 19 -34 29 -8 11 -21 17
-32 14 -11 -3 -22 0 -26 5 -3 7 -1 8 5 4 24 -15 11 8 -23 41 -31 30 -38 33
-53 21 -15 -12 -16 -11 -4 4 12 15 9 23 -20 60 -19 24 -48 64 -63 90 -21 33
-32 43 -38 35 -6 -8 -7 -6 -3 6 6 20 -13 69 -25 61 -5 -3 -7 1 -4 8 6 16 -39
161 -47 152 -3 -3 -9 0 -14 7 -5 8 -3 10 6 4 10 -6 11 1 5 31 -4 22 -9 212
-12 424 -5 412 -1 463 49 598 16 42 17 56 7 68 -10 12 -9 13 4 8 12 -4 20 3
29 23 7 15 17 31 22 34 5 4 5 13 1 20 -5 8 -5 11 0 7 4 -4 14 0 21 10 9 13 10
20 1 31 -10 12 -9 14 6 8 11 -4 16 -3 12 3 -3 6 -1 10 5 10 6 0 8 5 5 10 -3 6
-11 10 -16 10 -6 0 -7 -5 -3 -12 4 -7 3 -8 -5 -4 -19 12 -2 27 26 22 18 -4 23
-1 19 9 -3 9 0 12 8 9 16 -6 31 22 35 66 1 13 3 13 10 1 8 -12 15 -9 43 14 18
16 32 31 31 35 -1 4 8 16 20 26 21 19 21 19 7 0 -13 -18 -13 -19 0 -11 8 5 33
23 55 41 22 17 55 39 72 48 18 9 40 28 49 41 14 21 19 23 32 13 13 -11 15 -10
9 6 -7 16 -5 17 9 6 9 -8 18 -10 22 -4 4 5 12 10 17 11 6 2 56 18 113 38 57
19 111 35 121 35 10 0 21 3 24 7 4 3 21 8 39 10 18 2 34 7 37 11 4 4 35 9 71
11 36 2 72 7 81 11 8 5 103 12 210 15 107 4 196 8 198 11 12 11 21 -13 21 -56z
m770 47 c56 -3 78 -2 65 4 -17 8 -16 8 5 3 56 -13 136 -23 153 -18 9 3 17 1
17 -5 0 -6 15 -11 34 -11 67 0 317 -57 447 -101 31 -11 65 -17 75 -13 15 5 16
4 5 -4 -11 -8 -6 -14 23 -26 21 -9 42 -13 47 -10 5 3 9 -6 9 -20 0 -16 -7 -27
-20 -31 -11 -4 -18 -10 -15 -15 3 -5 0 -12 -6 -16 -8 -4 -9 -3 -5 4 12 21 -5
13 -55 -23 -27 -19 -52 -35 -55 -35 -4 0 -43 -24 -88 -53 -148 -97 -133 -91
-176 -73 -21 8 -48 13 -60 11 -12 -2 -31 4 -42 15 -12 11 -24 17 -28 15 -4 -2
-13 8 -20 23 -8 17 -14 22 -17 14 -4 -10 -11 -5 -24 15 -10 15 -19 24 -19 20
0 -5 -16 7 -36 27 -40 40 -44 42 -63 24 -10 -11 -11 -10 -6 5 5 12 2 17 -11
17 -15 0 -16 2 -6 9 10 6 5 12 -20 20 -25 9 -30 14 -19 20 15 10 -26 24 -102
36 -21 3 -35 10 -32 16 5 8 -1 11 -21 8 -3 0 -12 8 -20 18 -7 10 -14 14 -14 9
0 -5 -11 3 -24 17 -13 14 -27 23 -30 20 -3 -4 -6 -1 -6 5 0 6 4 13 9 16 5 3 7
15 4 26 -7 27 12 48 40 44 12 -2 60 -5 107 -7z m1265 -36 c-3 -2 1 -11 8 -19
9 -11 4 -11 -15 2 -33 22 -33 22 -8 22 10 0 17 -2 15 -5z m-1522 -170 c-20
-25 -52 -63 -72 -84 l-35 -37 22 -16 c12 -8 22 -21 22 -27 0 -7 -4 -6 -10 3
-6 10 -10 11 -10 3 0 -29 -19 -54 -34 -45 -5 3 -6 -3 -3 -14 7 -18 6 -18 -6
-2 -8 10 -18 14 -22 10 -5 -4 -5 -1 -1 6 4 7 11 10 15 7 14 -8 42 31 35 49 -8
20 -20 21 -31 2 -10 -17 -82 -66 -97 -66 -6 0 -4 5 4 10 12 7 -3 28 -75 102
-50 51 -93 95 -96 98 -22 20 -39 60 -39 92 0 21 2 38 4 38 2 0 28 -16 57 -35
70 -46 112 -59 169 -52 52 6 161 52 200 85 l25 20 8 -50 c7 -48 6 -53 -30 -97z
m2036 135 c9 -11 9 -16 -1 -22 -7 -4 -10 -4 -6 1 4 4 3 14 -3 22 -6 7 -9 13
-6 13 2 0 10 -6 16 -14z m-3292 -2 c-3 -3 -12 -4 -19 -1 -8 3 -5 6 6 6 11 1
17 -2 13 -5z m-767 -8 c0 -2 -6 -9 -14 -15 -11 -9 -16 -9 -22 0 -4 7 -3 9 4 5
6 -3 13 -2 17 4 6 10 15 14 15 6z m3370 -11 c0 -2 -6 -5 -13 -8 -8 -3 -14 1
-14 8 0 7 6 11 14 8 7 -3 13 -6 13 -8z m711 -52 c13 -16 12 -17 -3 -4 -10 7
-18 15 -18 17 0 8 8 3 21 -13z m-371 -1 c0 -5 -7 -9 -15 -9 -8 0 -12 4 -9 9 3
4 9 8 15 8 5 0 9 -4 9 -8z m-2164 -72 c26 -30 52 -54 56 -52 4 1 7 -1 6 -5 -5
-15 46 -74 59 -69 8 3 10 -1 6 -11 -5 -13 -2 -15 11 -10 9 4 15 3 12 -2 -7
-10 18 -33 27 -26 4 3 5 2 2 -1 -2 -4 0 -15 6 -26 8 -15 5 -23 -13 -39 -13
-11 -18 -18 -12 -15 6 3 11 -1 11 -9 0 -11 -4 -12 -14 -3 -10 8 -18 7 -31 -5
-9 -9 -39 -36 -66 -61 l-49 -45 -21 27 c-12 15 -21 29 -21 32 -3 23 -18 49
-27 44 -6 -4 -8 -2 -5 3 9 15 -47 145 -58 136 -4 -5 -5 -3 -2 4 4 6 2 24 -3
39 -18 47 -19 102 -2 116 13 10 14 10 8 1 -4 -8 -2 -13 6 -13 10 0 9 -3 -2
-10 -8 -5 -12 -12 -8 -15 3 -3 20 12 38 35 18 23 33 40 35 38 1 -2 24 -28 51
-58z m625 33 c9 -7 19 -10 23 -6 4 5 6 3 4 -3 -1 -6 8 -20 21 -31 l23 -19 -20
-71 c-18 -64 -88 -236 -112 -273 -8 -12 -11 -12 -28 3 -10 9 -22 14 -27 10 -4
-5 -5 -3 -2 3 8 14 -71 86 -85 78 -6 -4 -8 -3 -5 3 11 17 -20 38 -36 24 -10
-8 -14 -7 -14 4 0 8 5 12 10 8 5 -3 6 3 3 14 -4 12 -1 25 9 33 8 7 12 17 8 23
-3 5 -1 7 4 4 6 -4 16 0 23 8 10 12 10 19 -1 33 -11 14 -11 15 1 5 11 -10 17
-9 32 4 10 9 18 22 18 29 0 8 18 26 40 40 24 16 39 33 36 40 -3 7 0 16 6 20 7
5 8 2 4 -7 -4 -8 0 -5 8 5 21 26 20 42 -1 25 -16 -13 -17 -12 -5 3 14 18 36
15 63 -9z m-621 -13 c0 -5 -2 -10 -4 -10 -3 0 -8 5 -11 10 -3 6 -1 10 4 10 6
0 11 -4 11 -10z m2587 -17 c1 -22 -1 -24 -8 -10 -6 9 -7 22 -4 27 9 14 10 13
12 -17z m-3982 -2 c-3 -6 -11 -11 -16 -11 -5 0 -4 6 3 14 14 16 24 13 13 -3z
m262 7 c0 -7 -14 -24 -30 -37 -28 -24 -29 -24 -18 -3 6 12 16 22 22 22 6 0 8
4 5 9 -4 5 0 12 6 14 7 3 13 6 14 6 0 1 1 -5 1 -11z m844 -31 c-10 -9 -11 -8
-5 6 3 10 9 15 12 12 3 -3 0 -11 -7 -18z m2238 -9 c-5 -10 -11 -18 -12 -18 -2
0 -3 8 -3 18 0 10 6 19 13 19 8 0 9 -6 2 -19z m667 -7 c-4 -6 -13 -11 -19 -11
-8 0 -7 3 2 9 8 5 10 14 6 22 -6 11 -5 11 5 2 7 -6 9 -16 6 -22z m-4059 4 c0
-8 -4 -12 -9 -9 -5 3 -6 10 -3 15 9 13 12 11 12 -6z m2264 -28 c-10 -9 -11 -8
-5 6 3 10 9 15 12 12 3 -3 0 -11 -7 -18z m1395 -7 c0 -12 -4 -16 -9 -11 -5 5
-6 14 -3 20 10 15 12 14 12 -9z m-3693 -5 c-3 -9 -8 -14 -10 -11 -3 3 -2 9 2
15 9 16 15 13 8 -4z m1165 -94 c-2 -155 1 -213 12 -206 5 3 7 0 4 -9 -3 -8 1
-27 9 -43 8 -15 17 -45 21 -66 4 -23 11 -35 18 -31 7 4 8 -1 3 -16 -5 -15 -4
-20 4 -16 7 5 11 -2 11 -18 0 -14 5 -26 10 -26 6 0 10 -7 10 -15 0 -8 4 -15
10 -15 5 0 13 -18 16 -40 4 -23 11 -37 17 -33 5 3 7 1 4 -5 -11 -17 4 -44 20
-37 11 4 13 1 9 -11 -6 -16 22 -74 35 -74 4 0 10 6 12 13 4 9 6 9 6 0 1 -6 -3
-15 -9 -18 -10 -6 -4 -17 41 -66 15 -15 24 -30 22 -33 -3 -2 4 -11 16 -18 12
-7 21 -18 21 -25 0 -7 16 -24 35 -39 19 -14 33 -30 30 -34 -3 -5 8 -20 25 -33
16 -14 30 -29 30 -33 0 -13 73 -73 82 -68 5 3 8 2 7 -3 -3 -20 2 -44 9 -39 15
9 12 -42 -3 -54 -8 -7 -12 -17 -9 -22 20 -32 -107 75 -205 173 -25 25 -54 48
-63 52 -10 3 -18 12 -18 19 0 7 -14 27 -31 43 -16 17 -41 40 -53 53 -13 12
-28 22 -33 22 -6 0 -14 9 -19 19 -5 11 -38 51 -74 88 -36 38 -93 100 -126 138
-34 39 -89 101 -122 139 -33 37 -76 92 -96 120 -37 53 -57 116 -38 116 6 0 17
6 24 13 21 20 66 37 98 37 17 0 30 5 30 11 0 6 8 8 20 4 17 -5 19 -2 16 29 -4
33 2 41 27 37 5 -1 6 3 2 9 -7 12 40 63 68 73 10 4 15 12 11 18 -9 15 13 28
37 22 16 -5 18 -15 17 -102z m1219 85 c-6 -14 47 -69 57 -59 3 3 10 -6 16 -21
5 -15 16 -29 24 -32 8 -3 17 -21 21 -40 3 -19 10 -32 15 -29 5 3 11 1 15 -5 3
-5 19 -10 34 -10 21 0 27 -5 26 -19 -1 -21 -25 -54 -33 -47 -8 9 -72 -46 -65
-57 3 -6 1 -7 -6 -3 -14 9 -43 -12 -35 -25 3 -5 -1 -6 -9 -3 -17 6 -41 -21
-32 -35 3 -6 0 -9 -7 -6 -42 16 -88 -102 -94 -239 -2 -68 -6 -82 -28 -105 -15
-15 -26 -30 -26 -34 0 -14 -221 -270 -293 -339 -25 -24 -36 -41 -31 -50 4 -7
3 -10 -1 -5 -11 9 -45 -21 -45 -40 0 -8 -4 -12 -8 -9 -9 6 -32 -18 -70 -72
-13 -18 -28 -30 -33 -26 -5 3 -8 0 -7 -8 4 -19 -41 -23 -48 -4 -3 9 1 34 10
56 19 48 20 53 4 44 -7 -4 -8 -3 -4 4 4 6 13 9 21 5 10 -3 15 1 15 11 0 9 6
19 14 22 8 3 18 19 21 35 4 16 11 27 16 23 14 -8 11 20 -3 36 -11 12 -10 12 2
4 22 -15 41 -11 54 10 6 10 22 30 36 45 68 75 81 91 75 101 -3 5 1 10 10 10
11 0 15 5 11 16 -3 8 -2 13 3 10 13 -9 60 44 54 60 -3 9 0 14 8 12 8 -2 13 3
12 9 -2 7 3 12 9 10 7 -1 14 8 16 21 2 12 8 20 13 17 5 -4 9 1 9 9 0 8 6 19
13 23 6 4 26 31 43 59 23 38 29 56 23 73 -6 14 -5 20 1 16 6 -3 10 1 10 10 0
18 55 117 61 110 3 -2 6 8 7 22 1 14 7 32 13 39 6 7 8 18 4 24 -3 5 -1 10 5
10 8 0 11 14 8 39 -2 22 0 37 4 35 18 -11 28 150 16 254 -5 42 -4 43 18 38 14
-4 24 -2 24 4 0 5 3 10 6 10 3 0 4 -6 1 -14z m718 4 c-3 -5 -12 -10 -18 -10
-7 0 -6 4 3 10 19 12 23 12 15 0z m-1494 -17 c13 -16 12 -17 -3 -4 -10 7 -18
15 -18 17 0 8 8 3 21 -13z m1559 -5 c23 -26 26 -66 5 -74 -8 -4 -12 -10 -9
-15 3 -5 2 -8 -3 -7 -12 4 -83 -42 -83 -54 0 -7 5 -7 13 1 14 11 27 5 27 -13
0 -6 -5 -4 -10 4 -9 14 -11 13 -14 -10 0 -5 -5 -10 -11 -10 -5 0 -11 5 -11 10
-1 6 -2 12 -3 15 0 3 -22 -11 -48 -31 -57 -43 -63 -49 -42 -42 9 4 20 -1 26
-11 9 -14 7 -17 -11 -19 -14 -1 -17 1 -8 7 10 6 8 10 -8 14 -16 4 -37 -5 -74
-32 -28 -21 -98 -71 -155 -111 -78 -55 -100 -75 -90 -82 11 -7 9 -8 -4 -4 -20
6 -50 -17 -39 -29 4 -5 1 -5 -6 -1 -7 4 -25 -2 -41 -13 -16 -12 -34 -21 -40
-21 -6 0 -11 -6 -11 -12 0 -9 -4 -8 -10 2 -7 11 -9 2 -8 -30 1 -29 2 -35 5
-17 2 15 10 27 16 27 9 0 12 -52 11 -203 -2 -239 -1 -227 -18 -204 -8 10 -18
17 -22 16 -5 -1 -21 -1 -36 0 l-28 1 0 244 c0 203 2 246 15 256 8 7 12 17 8
23 -4 6 -1 7 7 2 7 -4 15 -4 19 1 8 12 68 57 181 135 52 37 94 72 92 79 -1 6
2 9 8 5 5 -3 81 41 167 98 221 146 209 141 243 105z m-930 -65 c33 -128 -5
-328 -97 -512 -26 -53 -47 -102 -47 -108 1 -7 -2 -11 -6 -8 -4 3 -23 -18 -41
-45 -19 -27 -37 -50 -41 -50 -3 0 -13 21 -21 48 -26 83 -62 177 -70 183 -5 3
-8 10 -8 15 2 18 -12 48 -30 68 -23 24 -24 44 -2 75 12 18 13 22 2 16 -8 -5
-5 1 5 13 10 12 19 35 20 51 1 38 23 34 78 -13 23 -20 49 -36 58 -36 17 0 120
202 156 307 10 28 21 50 25 47 4 -2 12 -25 19 -51z m1070 32 c5 3 12 0 16 -6
4 -8 3 -9 -4 -5 -29 18 -7 -15 44 -64 76 -75 149 -188 174 -266 21 -71 26
-168 10 -223 -5 -19 -16 -74 -25 -123 -21 -121 -35 -145 -90 -160 -25 -7 -40
-15 -34 -19 6 -3 -7 -9 -29 -13 -22 -3 -42 -13 -46 -21 -3 -8 -11 -15 -18 -15
-9 0 -8 3 2 10 22 14 -2 12 -49 -5 -40 -14 -42 -14 -51 8 -5 12 -9 16 -9 10
-1 -7 -6 -13 -13 -13 -6 0 -4 7 5 18 14 15 17 41 17 133 0 63 7 227 15 364 9
138 15 277 14 310 -1 33 1 70 5 83 7 22 9 22 32 7 14 -9 29 -13 34 -10z
m-1993 -51 c30 -78 135 -264 145 -258 4 3 5 -2 2 -10 -11 -29 22 -17 72 24 48
39 49 40 55 18 17 -61 30 -82 39 -68 17 27 2 -63 -19 -121 -12 -31 -20 -63
-18 -70 2 -8 2 -10 -1 -5 -6 11 -72 -180 -72 -208 0 -15 -3 -17 -12 -8 -9 9
-15 9 -27 -1 -14 -11 -14 -10 -2 6 12 15 11 20 -4 37 -10 11 -22 17 -28 13 -6
-4 -8 0 -5 9 9 22 -29 81 -45 71 -25 -16 -37 -12 -27 8 13 24 21 25 14 2 -5
-14 -4 -15 4 -4 6 8 8 20 5 28 -4 11 -8 11 -21 1 -13 -11 -14 -10 -4 8 6 12 7
25 2 30 -17 18 -90 228 -100 288 -12 73 -18 226 -9 226 4 0 9 9 12 20 9 33 21
23 44 -36z m-1693 31 c11 -8 18 -17 15 -19 -2 -2 -15 4 -28 15 -27 22 -15 26
13 4z m4176 -6 c0 -6 -4 -7 -10 -4 -5 3 -10 11 -10 16 0 6 5 7 10 4 6 -3 10
-11 10 -16z m-439 -16 c13 -16 12 -17 -3 -4 -10 7 -18 15 -18 17 0 8 8 3 21
-13z m529 13 c0 -2 -8 -10 -17 -17 -16 -13 -17 -12 -4 4 13 16 21 21 21 13z
m-3955 -16 c3 -6 -1 -7 -9 -4 -10 4 -16 1 -16 -7 0 -7 -3 -10 -6 -6 -7 7 4 27
16 27 5 0 12 -4 15 -10z m1042 -12 c-3 -8 -6 -5 -6 6 -1 11 2 17 5 13 3 -3 4
-12 1 -19z m1773 -42 c0 -2 -8 -10 -17 -17 -16 -13 -17 -12 -4 4 13 16 21 21
21 13z m90 -11 c0 -2 -10 -10 -22 -16 -21 -11 -22 -11 -9 4 13 16 31 23 31 12z
m321 -73 c-1 -26 -6 -123 -10 -215 -5 -92 -10 -170 -13 -172 -2 -3 -23 4 -46
15 -48 23 -90 25 -135 7 -43 -18 -62 -41 -45 -54 17 -12 53 -11 51 2 -1 6 13
9 30 8 18 -1 40 -2 49 -2 9 -1 29 -12 43 -26 14 -14 25 -22 25 -18 1 4 7 -7
15 -26 10 -23 15 -67 14 -140 0 -123 -14 -379 -20 -385 -10 -10 -93 13 -101
28 -8 14 -12 15 -26 4 -15 -11 -15 -11 -4 3 11 14 7 26 -23 75 -39 66 -42 79
-19 88 9 4 14 13 10 22 -3 8 -2 13 3 10 14 -9 50 79 57 140 5 43 4 55 -5 50
-6 -4 -9 -12 -5 -17 3 -5 0 -8 -6 -7 -7 2 -22 -27 -34 -64 -20 -61 -49 -108
-66 -108 -4 0 -12 11 -18 25 -8 17 -17 23 -29 18 -15 -5 -15 -3 2 10 11 9 16
17 10 17 -11 0 -12 93 -1 130 8 24 8 24 -7 5 -15 -18 -15 -16 -2 27 7 25 10
50 7 54 -4 4 -1 4 6 0 7 -4 12 -1 12 9 0 9 7 15 16 13 9 -2 23 8 31 22 l15 25
-21 -24 c-11 -13 -21 -18 -21 -13 0 6 5 14 10 17 12 7 -5 35 -21 35 -13 0 -61
-81 -63 -106 0 -12 -4 -20 -7 -18 -4 2 -9 -9 -12 -25 -5 -23 -14 -30 -52 -41
-76 -21 -112 -79 -102 -166 2 -24 2 -44 -1 -44 -2 0 -20 9 -38 21 l-34 21 0
197 c0 143 3 201 13 213 6 8 67 55 134 104 79 57 118 91 110 96 -9 5 -9 10 2
20 9 8 11 9 7 1 -10 -18 12 -26 32 -11 45 32 84 69 78 75 -3 4 -13 -2 -22 -13
-15 -18 -15 -18 -5 2 6 12 7 25 3 30 -4 4 5 0 20 -9 19 -12 29 -14 34 -5 5 7
3 8 -6 3 -9 -6 -11 -4 -6 4 5 7 13 10 20 8 6 -2 45 22 86 53 41 32 77 56 79
54 3 -3 4 -26 2 -52z m-100 15 c-8 -8 -14 -7 -23 2 -11 10 -9 11 6 5 15 -6 17
-4 11 6 -6 9 -4 11 4 5 9 -5 10 -10 2 -18z m-3049 -23 c-9 -16 -10 -14 -9 8 1
15 6 23 11 18 4 -4 4 -16 -2 -26z m48 30 c0 -8 -19 -13 -24 -6 -3 5 1 9 9 9 8
0 15 -2 15 -3z m2050 -39 c0 -5 -5 -3 -10 5 -5 8 -10 20 -10 25 0 6 5 3 10 -5
5 -8 10 -19 10 -25z m-275 5 c35 0 40 -84 7 -110 -12 -10 -19 -19 -17 -21 6
-6 -114 -1 -141 5 -19 5 -25 15 -30 46 -4 25 -11 37 -18 33 -6 -3 1 6 15 21
21 23 38 29 95 34 38 4 71 4 72 0 2 -5 10 -8 17 -8z m895 5 c-7 -8 -17 -15
-22 -15 -11 0 14 29 26 30 5 0 3 -7 -4 -15z m-1168 -12 c-6 -3 -10 -9 -7 -13
3 -5 1 -11 -4 -14 -11 -7 -9 13 3 32 4 7 11 10 15 6 3 -4 0 -9 -7 -11z m1478
3 c-7 -7 -13 -7 -20 0 -6 6 -3 10 10 10 13 0 16 -4 10 -10z m672 -20 c7 4 8 2
4 -5 -9 -13 -26 -5 -25 12 0 9 2 8 6 -1 2 -6 10 -9 15 -6z m-3707 -25 c-3 -6
-11 -11 -16 -11 -5 0 -4 6 3 14 14 16 24 13 13 -3z m2262 -28 c-3 -10 -5 -4
-5 12 0 17 2 24 5 18 2 -7 2 -21 0 -30z m-737 -7 c0 -3 -4 -8 -10 -11 -5 -3
-10 -1 -10 4 0 6 5 11 10 11 6 0 10 -2 10 -4z m1380 -15 c0 -5 -7 -12 -16 -15
-14 -5 -15 -4 -4 9 14 17 20 19 20 6z m-2947 -49 c-3 -12 -9 -22 -14 -22 -5 0
-3 11 3 25 13 30 20 28 11 -3z m1342 -78 c17 -39 19 -51 9 -51 -8 0 -13 5 -12
11 0 6 -4 24 -10 39 -12 29 -27 93 -16 67 4 -8 17 -38 29 -66z m-1376 30 c4 3
7 -4 7 -15 0 -19 -1 -19 -13 -3 -7 10 -12 25 -12 33 1 12 2 12 6 -2 2 -9 8
-15 12 -13z m1873 12 c10 -7 34 -63 54 -125 26 -80 39 -109 46 -99 6 9 7 6 3
-10 -4 -15 1 -32 16 -54 13 -17 17 -28 11 -24 -15 9 -10 -30 8 -64 12 -23 9
-105 -5 -117 -4 -5 -5 -2 -1 5 14 24 -5 11 -37 -25 -18 -20 -31 -43 -31 -50 1
-7 -2 -11 -6 -8 -10 6 -86 -73 -82 -85 3 -13 -15 -13 -23 0 -4 6 -11 7 -17 4
-6 -4 -9 -3 -5 2 8 14 -140 167 -154 158 -8 -4 -10 -3 -5 5 4 6 3 18 -3 25 -8
9 -6 29 4 72 21 78 63 212 79 249 8 17 21 53 30 82 13 39 24 54 44 62 37 13
54 13 74 -3z m475 -8 c-3 -8 -6 -5 -6 6 -1 11 2 17 5 13 3 -3 4 -12 1 -19z
m518 12 c3 -5 2 -10 -4 -10 -5 0 -13 5 -16 10 -3 6 -2 10 4 10 5 0 13 -4 16
-10z m-76 -27 c-12 -15 -12 -16 4 -10 25 9 21 4 -15 -23 -31 -22 -32 -22 -14
-2 11 12 16 22 11 22 -4 0 -2 7 5 15 7 8 15 15 17 15 3 0 -1 -8 -8 -17z
m-1066 -8 c-3 -9 -8 -14 -10 -11 -3 3 -2 9 2 15 9 16 15 13 8 -4z m598 -12
c-12 -20 -14 -14 -5 12 4 9 9 14 11 11 3 -2 0 -13 -6 -23z m-974 -15 c-3 -8
-6 -5 -6 6 -1 11 2 17 5 13 3 -3 4 -12 1 -19z m-278 -150 c64 -68 228 -236
365 -374 137 -139 253 -258 257 -266 15 -22 10 -31 -13 -25 -12 4 -28 1 -36
-5 -10 -9 -12 -8 -10 2 2 10 -16 18 -57 26 -84 18 -134 30 -175 43 -19 6 -48
14 -65 16 -16 3 -73 17 -125 31 -52 13 -108 28 -124 32 -21 5 -32 16 -38 37
-14 49 -37 173 -53 283 -8 56 -19 111 -25 122 -5 10 -11 29 -11 42 -2 47 -18
-58 -19 -127 -1 -98 -18 -63 -27 55 -6 95 11 230 30 230 6 0 63 -55 126 -122z
m1199 87 c-3 -3 -9 2 -12 12 -6 14 -5 15 5 6 7 -7 10 -15 7 -18z m409 -13
c-16 -15 -38 -9 -36 11 0 9 2 9 6 0 2 -7 9 -13 15 -13 6 0 8 7 5 14 -4 10 -1
13 9 9 14 -5 14 -7 1 -21z m-710 -32 c-1 -12 -5 -16 -10 -11 -5 5 -6 14 -3 20
11 16 15 13 13 -9z m1093 -10 c-12 -8 -12 -10 -1 -10 8 0 12 -2 9 -5 -3 -3
-13 -2 -22 1 -14 5 -15 9 -4 15 7 5 18 9 23 9 6 0 3 -5 -5 -10z m-813 -42 c-3
-8 -6 -5 -6 6 -1 11 2 17 5 13 3 -3 4 -12 1 -19z m1523 -60 c0 -9 4 -8 10 2
16 24 10 -2 -10 -45 -15 -33 -18 -35 -17 -15 1 14 6 29 12 33 7 6 6 10 -2 14
-15 6 -17 23 -3 23 6 0 10 -6 10 -12z m-2135 -8 c3 -5 1 -10 -4 -10 -6 0 -11
5 -11 10 0 6 2 10 4 10 3 0 8 -4 11 -10z m-8 -62 c-3 -8 -6 -5 -6 6 -1 11 2
17 5 13 3 -3 4 -12 1 -19z m-90 -3 c0 -8 -4 -15 -9 -15 -10 0 -11 14 -1 23 9
10 10 9 10 -8z m-34 -10 c-3 -9 -8 -14 -10 -11 -3 3 -2 9 2 15 9 16 15 13 8
-4z m875 -349 c-2 -167 -6 -307 -9 -310 -6 -6 -92 11 -294 59 -60 14 -119 27
-129 28 -27 3 -30 19 -8 42 10 11 35 42 55 70 21 27 87 101 146 165 60 63 121
130 137 149 16 19 38 43 49 55 11 12 19 25 17 29 -1 5 2 6 8 2 5 -3 10 -1 10
4 0 6 5 11 11 11 7 0 9 -94 7 -304z m536 248 c3 -8 2 -12 -4 -9 -6 3 -10 10
-10 16 0 14 7 11 14 -7z m-48 -46 c21 -65 46 -116 71 -143 10 -12 19 -26 21
-33 6 -29 85 -142 94 -135 7 3 8 1 4 -6 -4 -7 5 -26 21 -44 16 -18 35 -48 42
-66 9 -21 17 -28 22 -20 4 7 7 3 7 -12 0 -13 4 -45 7 -70 17 -113 -72 -241
-177 -254 -39 -5 -60 6 -105 56 -19 21 -39 36 -44 33 -5 -3 -9 -1 -9 5 0 6
-37 29 -82 51 -46 23 -88 48 -95 56 -11 16 -5 52 15 91 10 17 4 23 -55 54 -35
19 -82 49 -103 66 -39 34 -42 50 -16 85 12 16 20 14 110 -32 93 -46 134 -54
122 -23 -3 8 -1 11 4 8 6 -3 10 -1 10 4 0 17 -77 64 -91 55 -7 -4 -10 -3 -6 3
3 5 -30 27 -74 48 -86 42 -101 64 -78 107 7 12 13 25 12 28 -1 3 11 5 27 5 15
0 26 -4 22 -9 -3 -5 2 -6 12 -3 11 5 15 3 10 -5 -5 -8 -2 -9 10 -5 9 4 15 3
12 -2 -3 -4 36 -26 87 -49 115 -50 133 -55 152 -45 12 7 10 17 -15 68 -32 63
-38 121 -17 147 9 12 43 36 54 38 1 0 9 -24 19 -52z m19 32 c3 -5 1 -10 -4
-10 -6 0 -11 5 -11 10 0 6 2 10 4 10 3 0 8 -4 11 -10z m182 -10 c-3 -21 -17
-40 -17 -22 0 13 11 42 16 42 2 0 3 -9 1 -20z m-1086 -43 c-10 -9 -11 -8 -5 6
3 10 9 15 12 12 3 -3 0 -11 -7 -18z m9 -51 c0 -3 -4 -8 -10 -11 -5 -3 -10 -1
-10 4 0 6 5 11 10 11 6 0 10 -2 10 -4z m-50 -46 c0 -5 -5 -10 -11 -10 -5 0 -7
5 -4 10 3 6 8 10 11 10 2 0 4 -4 4 -10z m-3026 -90 c-3 -27 9 -42 18 -22 2 4
33 18 71 30 59 19 88 22 230 21 215 -1 261 -7 265 -36 3 -22 3 -22 -230 -25
l-233 -3 -53 -30 c-60 -32 -106 -81 -98 -101 3 -8 0 -13 -7 -11 -9 1 -13 -87
-15 -378 -3 -439 -3 -441 76 -498 53 -38 89 -53 147 -61 28 -4 35 -2 25 4 -10
7 1 8 35 5 52 -6 46 2 -18 25 -27 10 -34 36 -9 34 7 -1 110 -2 229 -2 l216 -2
-23 -26 c-21 -21 -22 -27 -10 -35 13 -9 13 -10 0 -6 -8 2 -23 -2 -32 -10 -12
-11 -66 -17 -205 -25 -194 -10 -274 -3 -335 28 -31 16 -41 18 -33 5 3 -5 1
-12 -4 -15 -4 -3 -8 4 -7 17 1 15 -4 22 -16 21 -10 -1 -16 2 -13 6 6 9 -30 42
-37 34 -3 -3 -5 3 -4 13 0 10 -5 17 -12 15 -8 -1 -11 1 -8 6 3 5 -1 26 -9 48
-11 31 -14 116 -15 396 0 241 -3 357 -11 360 -5 2 -7 11 -3 22 5 14 9 15 15 4
6 -10 9 -8 9 7 0 24 32 80 68 117 28 30 38 73 15 64 -19 -8 -16 11 5 23 9 6
18 11 18 11 1 0 0 -13 -2 -30z m-28 -32 c4 4 2 -1 -5 -11 -10 -13 -17 -15 -27
-6 -8 6 -11 15 -8 21 4 5 11 5 18 -1 7 -6 17 -7 22 -3z m317 -15 c-7 -2 -21
-2 -30 0 -10 3 -4 5 12 5 17 0 24 -2 18 -5z m64 1 c-3 -3 -12 -4 -19 -1 -8 3
-5 6 6 6 11 1 17 -2 13 -5z m362 -60 c2 -2 5 -199 5 -436 l1 -433 -340 0 -340
0 0 85 0 85 175 1 c442 4 410 2 419 27 5 12 5 23 0 25 -5 2 -6 8 -3 14 10 15
15 488 5 488 -5 0 -7 14 -5 31 l4 32 -279 -7 c-189 -5 -285 -4 -299 3 -22 12
-20 52 6 73 23 20 630 31 651 12z m-832 -56 c-3 -8 -6 -5 -6 6 -1 11 2 17 5
13 3 -3 4 -12 1 -19z m3654 -1 c-10 -9 -11 -8 -5 6 3 10 9 15 12 12 3 -3 0
-11 -7 -18z m-3680 -10 c-10 -9 -11 -8 -5 6 3 10 9 15 12 12 3 -3 0 -11 -7
-18z m3713 5 c3 -5 -1 -9 -9 -9 -8 0 -12 4 -9 9 3 4 7 8 9 8 2 0 6 -4 9 -8z
m753 -22 c-1 -3 12 -23 30 -44 20 -25 36 -36 44 -31 7 5 10 4 6 -2 -4 -6 3
-27 13 -49 11 -21 20 -46 20 -56 0 -15 -6 -14 -52 11 -45 25 -54 36 -76 90
-13 33 -28 59 -32 56 -5 -3 -8 3 -7 12 0 13 9 18 28 18 15 0 27 -2 26 -5z
m-3746 -57 c4 -5 9 -123 11 -263 l3 -255 -95 0 c-52 0 -178 -2 -280 -4 -177
-4 -185 -4 -187 15 -1 10 -5 44 -8 74 -5 42 -10 246 -10 432 0 1 97 5 215 8
229 8 339 5 351 -7z m3046 -25 c15 -6 32 -10 37 -9 11 2 36 -19 36 -32 0 -6
-7 -2 -15 9 -20 26 -33 5 -30 -49 4 -54 -1 -60 -31 -41 -21 15 -24 15 -24 1 0
-9 -3 -18 -7 -20 -5 -3 -7 30 -5 74 2 43 5 79 7 79 2 0 16 -5 32 -12z m-2560
-30 c-3 -8 -6 -5 -6 6 -1 11 2 17 5 13 3 -3 4 -12 1 -19z m50 -110 c-3 -8 -6
-5 -6 6 -1 11 2 17 5 13 3 -3 4 -12 1 -19z m1600 16 c-3 -3 -12 -4 -19 -1 -8
3 -5 6 6 6 11 1 17 -2 13 -5z m1638 -5 c-2 -3 12 -15 33 -26 36 -19 37 -20 37
-79 0 -68 -33 -144 -72 -165 -13 -7 -23 -16 -23 -20 0 -20 -71 -49 -122 -50
-67 -1 -104 4 -114 14 -5 4 -1 5 9 1 29 -11 19 10 -18 35 -19 13 -33 27 -30
31 3 4 28 13 56 20 38 9 53 18 59 36 5 13 16 24 24 24 7 0 16 9 19 20 3 11 11
20 17 20 9 0 9 -5 -1 -17 -11 -15 -10 -14 9 1 22 19 82 129 82 150 0 7 9 12
19 12 11 0 18 -3 16 -7z m160 2 c3 -5 2 -12 -3 -15 -5 -3 -9 1 -9 9 0 17 3 19
12 6z m-650 -70 c3 -5 2 -12 -3 -15 -5 -3 -9 1 -9 9 0 17 3 19 12 6z m371 -19
c-18 -16 -18 -16 -6 6 6 13 14 21 18 18 3 -4 -2 -14 -12 -24z m302 -44 c58
-118 67 -214 26 -279 -28 -45 -65 -64 -141 -75 -58 -7 -107 11 -136 51 -17 24
-17 24 16 40 49 23 124 100 151 153 26 53 40 112 27 112 -5 0 -4 16 1 35 6 19
14 32 18 30 4 -3 21 -33 38 -67z m12 51 c0 -5 -4 -9 -10 -9 -5 0 -10 7 -10 16
0 8 5 12 10 9 6 -3 10 -10 10 -16z m-330 -39 c0 -5 -9 -14 -21 -20 -19 -11
-20 -10 -9 9 11 22 30 29 30 11z m-4343 -282 c-2 -13 -4 -3 -4 22 0 25 2 35 4
23 2 -13 2 -33 0 -45z m1308 -55 c17 -23 40 -46 53 -52 28 -13 24 -36 -7 -35
-11 0 -21 -3 -21 -7 0 -5 -8 -6 -17 -2 -10 3 -15 3 -11 -2 4 -4 -13 -23 -37
-42 -25 -19 -45 -39 -45 -45 0 -9 3 -9 12 0 17 17 143 15 177 -2 22 -12 159
-101 168 -110 1 -1 -27 -32 -62 -69 -36 -38 -65 -73 -65 -78 0 -6 -9 -23 -19
-37 -10 -15 -23 -47 -28 -72 -7 -35 -13 -46 -31 -48 -19 -3 -90 38 -130 76 -7
6 -17 12 -21 12 -20 0 -121 115 -137 155 -17 47 -14 147 5 153 5 2 6 12 3 24
-3 14 -1 19 6 14 8 -4 10 -2 6 8 -3 9 8 29 30 51 26 26 36 44 36 68 0 24 3 28
10 17 8 -13 10 -12 10 4 0 11 3 17 6 13 4 -3 13 1 22 9 13 14 13 17 1 26 -10
7 -8 8 9 3 13 -4 22 -2 22 5 0 21 24 4 55 -37z m-1312 -44 c-5 -5 -7 7 -4 29
5 34 6 35 9 8 2 -16 0 -32 -5 -37z m4661 -22 c17 -12 17 -14 3 -20 -10 -4 -16
-2 -14 6 1 7 -6 11 -15 11 -10 -1 -15 2 -12 7 7 12 17 11 38 -4z m-4657 -29
c-3 -8 -6 -5 -6 6 -1 11 2 17 5 13 3 -3 4 -12 1 -19z m17 -58 c-6 -6 -10 -3
-10 10 0 13 4 16 10 10 7 -7 7 -13 0 -20z m87 -123 c-10 -9 -11 -8 -5 6 3 10
9 15 12 12 3 -3 0 -11 -7 -18z m1644 -117 c36 -16 70 -30 75 -30 18 0 11 -10
-41 -63 -62 -62 -91 -117 -115 -214 -9 -40 -23 -73 -29 -73 -19 0 -152 70
-168 88 -8 10 -17 37 -21 62 -4 31 -3 40 4 30 8 -13 10 -12 10 3 0 30 56 142
85 171 32 32 79 55 112 56 12 0 52 -13 88 -30z m301 -161 c71 -24 99 -40 137
-77 26 -25 47 -52 47 -58 0 -7 6 -19 13 -26 20 -22 77 -137 77 -157 0 -11 -7
-27 -16 -36 -15 -15 -19 -14 -44 10 -14 14 -30 22 -35 18 -4 -5 -5 -3 -1 4 7
13 -47 56 -58 45 -4 -4 -6 -1 -4 7 2 7 -10 21 -27 31 -33 19 -47 17 -38 -5 5
-14 -6 -19 -34 -16 -20 3 -15 -7 8 -20 15 -8 19 -8 15 0 -9 14 14 14 34 0 13
-9 12 -10 -2 -5 -28 9 -21 -6 22 -48 28 -27 39 -44 34 -55 -4 -9 -7 -23 -8
-32 0 -12 -12 -15 -52 -15 -29 1 -50 4 -48 7 6 10 -65 39 -81 33 -14 -6 -14
-8 2 -19 10 -7 21 -13 26 -14 4 0 16 -10 26 -20 10 -10 35 -25 55 -32 20 -7
36 -16 36 -20 0 -9 -98 2 -148 17 -24 7 -49 11 -55 10 -7 -2 -8 -1 -4 2 10 5
-34 38 -45 34 -5 -1 -8 3 -8 9 0 11 -79 111 -92 117 -5 2 -8 9 -8 17 0 7 -7
18 -15 25 -22 18 -19 99 6 165 13 35 38 74 68 104 47 48 49 49 88 41 22 -5 80
-23 129 -41z m34 27 c0 -2 -7 -7 -16 -10 -8 -3 -12 -2 -9 4 6 10 25 14 25 6z
m400 -40 c30 -9 102 -29 160 -46 58 -16 141 -39 185 -51 131 -34 121 -23 124
-130 4 -135 6 -156 21 -174 11 -13 10 -22 -5 -55 -10 -22 -24 -40 -31 -40 -8
0 -19 -9 -26 -20 -7 -11 -23 -20 -36 -20 -13 0 -20 -4 -17 -10 3 -6 -4 -10
-17 -10 -16 0 -19 3 -10 9 20 12 -16 20 -126 28 -51 3 -95 10 -98 15 -3 4 -16
8 -30 8 -14 0 -65 12 -115 27 -78 23 -89 29 -89 49 0 13 5 26 10 29 14 9 13
272 -1 281 -8 4 -9 25 -5 62 8 65 12 74 34 68 10 -3 42 -12 72 -20z m-717 -51
c-3 -9 -8 -14 -10 -11 -3 3 -2 9 2 15 9 16 15 13 8 -4z m-728 -5 c-4 -6 -1
-19 6 -28 12 -16 12 -16 -5 0 -16 14 -15 38 0 38 3 0 2 -5 -1 -10z m2573 -24
c-2 -1 -11 -7 -20 -14 -14 -11 -16 -10 -13 5 2 10 4 19 4 20 1 1 8 0 16 -4 9
-3 15 -6 13 -7z m-1335 -51 c-3 -9 -8 -14 -10 -11 -3 3 -2 9 2 15 9 16 15 13
8 -4z m781 -7 c12 -45 6 -194 -7 -213 -21 -28 -29 -4 -29 89 0 120 19 186 36
124z m667 -45 c12 -16 12 -17 -2 -6 -9 7 -19 10 -23 6 -10 -11 -37 -12 -30 -2
3 5 9 7 14 4 5 -3 11 -1 15 5 8 13 10 13 26 -7z m-446 -38 c33 -9 92 -26 130
-37 39 -11 81 -23 95 -27 23 -6 26 -13 33 -85 5 -52 4 -83 -3 -91 -6 -7 -41
-15 -78 -19 -143 -12 -258 -24 -280 -29 -12 -3 -20 -2 -17 2 2 5 -3 15 -12 22
-14 12 -15 12 -9 1 7 -12 4 -12 -15 -1 -14 7 -19 14 -12 16 10 4 10 9 0 24 -9
14 -9 26 0 49 6 17 7 28 2 25 -4 -3 -2 13 6 36 8 23 15 65 15 94 0 28 3 54 6
57 3 3 22 0 42 -7 20 -8 64 -21 97 -30z m-1995 -29 c0 -2 -8 -10 -17 -17 -16
-13 -17 -12 -4 4 13 16 21 21 21 13z m-295 -36 c10 -11 16 -20 13 -20 -3 0
-13 9 -23 20 -10 11 -16 20 -13 20 3 0 13 -9 23 -20z m449 -18 c3 -5 -1 -9 -9
-9 -8 0 -12 4 -9 9 3 4 7 8 9 8 2 0 6 -4 9 -8z m399 -158 c-4 -12 -8 -13 -14
-3 -9 15 -2 32 11 24 5 -3 6 -13 3 -21z m2958 -159 c-8 -56 -9 -53 -6 35 5
136 8 165 12 90 2 -36 -1 -92 -6 -125z m-1696 54 c24 -31 25 -40 25 -165 0
-78 -4 -135 -10 -139 -5 -3 -10 -15 -10 -26 0 -14 -7 -19 -27 -18 -27 0 -27 1
-5 9 37 15 25 20 -15 6 -40 -14 -88 -5 -114 21 -12 12 -21 196 -12 249 3 19
24 52 54 83 49 51 49 51 70 33 11 -11 31 -34 44 -53z m-1170 33 c-3 -3 -11 0
-18 7 -9 10 -8 11 6 5 10 -3 15 -9 12 -12z m535 -33 c30 -6 64 -12 75 -14 11
-2 63 -9 115 -15 52 -6 101 -13 108 -15 8 -3 12 -25 12 -64 0 -73 2 -72 -170
-54 -69 7 -136 11 -150 8 -17 -4 -21 -3 -11 4 10 6 -2 12 -43 22 l-56 12 -1
41 c0 23 -2 50 -4 60 -7 39 -5 40 125 15z m1145 -1 c12 -11 10 -117 -2 -129
-5 -5 -78 -15 -163 -23 -151 -14 -155 -14 -172 5 -12 14 -17 35 -15 70 0 27 2
49 2 49 1 0 210 26 250 31 6 1 -3 5 -20 10 -19 5 -4 6 40 2 39 -3 75 -9 80
-15z m-1048 6 c-3 -3 -12 -4 -19 -1 -8 3 -5 6 6 6 11 1 17 -2 13 -5z m-1809
-11 c-10 -2 -28 -2 -40 0 -13 2 -5 4 17 4 22 1 32 -1 23 -4z m102 -4 c0 -8 19
-10 63 -6 42 5 57 4 47 -3 -19 -12 -150 -13 -150 -1 0 9 16 18 33 20 4 1 7 -4
7 -10z m125 -38 l40 -9 -40 0 c-22 0 -49 3 -60 8 l-20 9 20 0 c11 0 38 -4 60
-8z m85 -1 c0 -5 -7 -7 -15 -4 -8 4 -15 8 -15 10 0 2 7 4 15 4 8 0 15 -4 15
-10z m-177 -7 c-7 -2 -19 -2 -25 0 -7 3 -2 5 12 5 14 0 19 -2 13 -5z m2305 -5
c5 -7 12 -37 14 -67 4 -42 11 -59 29 -74 22 -18 35 -19 192 -13 l168 6 -3
-122 -3 -123 -283 -3 -283 -2 3 27 c2 20 12 32 33 41 54 23 60 29 66 58 6 27
7 28 8 4 1 -21 3 -22 11 -9 5 9 8 72 7 140 -4 133 -2 149 18 149 7 0 17 -6 23
-12z m-310 -147 c3 -133 3 -134 33 -168 22 -25 28 -40 23 -56 -3 -12 -7 -23
-8 -24 -4 -4 -547 -5 -552 0 -2 2 -6 63 -8 136 l-4 131 52 -6 c28 -3 69 -10
91 -15 22 -5 96 -12 165 -16 146 -7 148 -6 154 80 5 66 12 79 34 75 15 -3 17
-22 20 -137z m1919 -43 c-2 -13 -4 -3 -4 22 0 25 2 35 4 23 2 -13 2 -33 0 -45z
m-3080 16 c-3 -3 -12 -4 -19 -1 -8 3 -5 6 6 6 11 1 17 -2 13 -5z m1953 -294
c8 -15 8 -25 0 -38 -9 -14 -10 -13 -4 7 3 13 2 21 -3 18 -5 -3 -9 3 -9 14 0
24 3 24 16 -1z m30 5 c7 -9 8 -15 2 -15 -5 0 -12 7 -16 15 -3 8 -4 15 -2 15 2
0 9 -7 16 -15z m-90 -105 c0 -5 -2 -10 -4 -10 -3 0 -8 5 -11 10 -3 6 -1 10 4
10 6 0 11 -4 11 -10z m1104 -215 c-4 -8 -11 -12 -16 -9 -6 4 -5 10 3 15 19 12
19 11 13 -6z m-17 -62 c-3 -10 -5 -4 -5 12 0 17 2 24 5 18 2 -7 2 -21 0 -30z
m-3323 11 c5 -14 4 -15 -9 -4 -17 14 -19 20 -6 20 5 0 12 -7 15 -16z m3049
-128 c4 -10 1 -13 -8 -9 -8 3 -12 9 -9 14 7 12 11 11 17 -5z m180 -60 c-10
-13 -20 -22 -22 -20 -4 4 29 44 36 44 2 0 -4 -11 -14 -24z m-55 -75 c-7 -9
-13 -18 -15 -20 -1 -2 -1 5 0 16 0 11 7 20 14 20 10 0 10 -4 1 -16z m-3178
-41 c0 -5 -2 -10 -4 -10 -3 0 -8 5 -11 10 -3 6 -1 10 4 10 6 0 11 -4 11 -10z
m220 -60 c0 -5 -4 -10 -10 -10 -5 0 -10 5 -10 10 0 6 5 10 10 10 6 0 10 -4 10
-10z m2815 -59 c-3 -6 -11 -11 -16 -11 -5 0 -4 6 3 14 14 16 24 13 13 -3z
m-2915 -7 c0 -8 -19 -13 -24 -6 -3 5 1 9 9 9 8 0 15 -2 15 -3z m385 -24 c3 -5
2 -10 -4 -10 -5 0 -13 5 -16 10 -3 6 -2 10 4 10 5 0 13 -4 16 -10z m2467 -22
c-7 -7 -12 -8 -12 -2 0 14 12 26 19 19 2 -3 -1 -11 -7 -17z m-87 -76 c-3 -3
-11 0 -18 7 -9 10 -8 11 6 5 10 -3 15 -9 12 -12z m-30 -23 c-4 -5 -14 -8 -23
-8 -15 1 -15 2 1 6 9 2 14 9 11 15 -4 7 -2 8 5 4 6 -4 9 -12 6 -17z m-285
-129 c-8 -5 -19 -10 -25 -10 -5 0 -3 5 5 10 8 5 20 10 25 10 6 0 3 -5 -5 -10z"/>
<path d="M5527 8589 c7 -7 15 -10 18 -7 3 3 -2 9 -12 12 -14 6 -15 5 -6 -5z"/>
<path d="M5574 8584 c-18 -14 -18 -14 6 -3 31 14 36 19 24 19 -6 0 -19 -7 -30
-16z"/>
<path d="M4740 8253 c-19 -7 -59 -43 -71 -64 -7 -14 -1 -16 55 -12 56 5 72 1
146 -31 87 -38 112 -37 125 4 9 27 1 37 -48 62 -74 38 -166 56 -207 41z"/>
<path d="M5435 8253 c-62 -14 -114 -36 -109 -45 4 -7 2 -8 -5 -4 -16 10 -61
-20 -61 -42 1 -21 23 -52 39 -52 6 0 44 17 84 37 73 37 127 45 190 30 36 -10
36 11 0 44 -15 13 -21 16 -14 7 9 -12 10 -18 2 -18 -6 0 -11 4 -11 9 0 32 -54
48 -115 34z m52 -29 c-3 -3 -12 -4 -19 -1 -8 3 -5 6 6 6 11 1 17 -2 13 -5z"/>
<path d="M4774 8090 c-34 -14 -64 -59 -64 -97 0 -100 88 -172 162 -132 17 9
18 13 7 21 -11 8 -10 9 3 4 11 -3 26 3 39 17 18 19 20 30 15 85 -4 48 -2 61 7
56 7 -4 3 2 -7 15 -11 12 -26 19 -33 17 -7 -3 -12 0 -10 7 3 15 -88 20 -119 7z
m22 -29 c-3 -4 6 -13 21 -20 21 -10 28 -9 35 1 6 8 7 5 3 -11 -5 -17 -4 -21 5
-16 7 4 5 -5 -4 -24 -9 -17 -14 -31 -11 -31 4 0 3 -5 0 -10 -5 -8 -11 -7 -21
1 -8 7 -14 7 -14 1 0 -5 -7 -13 -16 -16 -8 -3 -12 -2 -9 3 3 5 -3 16 -12 23
-10 7 -18 26 -19 43 0 18 -5 29 -12 28 -16 -4 -15 2 4 17 12 11 15 11 12 0 -2
-8 5 -16 15 -18 9 -2 17 2 17 8 0 6 -5 8 -12 4 -9 -5 -9 -2 1 9 14 18 26 24
17 8z m-11 -163 c-3 -11 2 -18 13 -19 10 0 12 -3 5 -5 -7 -3 -20 -1 -30 5 -12
7 -13 10 -4 11 10 0 11 3 2 13 -8 10 -7 14 3 14 8 0 13 -8 11 -19z"/>
<path d="M5349 8085 c-14 -8 -34 -25 -43 -39 -18 -29 -21 -40 -6 -31 6 4 10
-13 10 -44 0 -43 5 -55 33 -86 31 -33 38 -36 78 -33 29 2 44 8 44 17 0 8 6 16
14 19 9 3 11 0 6 -8 -5 -9 -4 -11 3 -6 17 10 15 26 -3 26 -18 0 -18 8 0 40 9
16 14 19 15 10 0 -9 -6 -22 -12 -29 -11 -11 -10 -13 5 -8 10 4 17 1 17 -6 1
-7 7 0 15 14 19 35 14 111 -11 136 -42 44 -113 56 -165 28z m71 -29 c0 -2 -8
-10 -17 -17 -16 -13 -17 -12 -4 4 13 16 21 21 21 13z m44 -8 c-5 -8 -2 -9 9
-5 10 4 16 2 14 -6 -1 -7 7 -11 18 -10 11 1 14 0 8 -3 -7 -3 -13 -13 -13 -22
0 -15 2 -15 10 -2 6 9 10 10 10 3 0 -7 -11 -23 -25 -37 -21 -21 -30 -24 -50
-16 -27 10 -27 11 -30 53 -1 17 3 27 12 27 7 0 16 7 19 15 4 8 10 15 16 15 5
0 6 -5 2 -12z m-48 -95 c-10 -11 -19 -7 -22 10 -2 15 0 16 12 6 8 -6 12 -14
10 -16z m105 -20 c-9 -16 -10 -14 -11 12 0 21 3 26 11 18 8 -8 8 -16 0 -30z
m-68 0 c3 -5 -5 -8 -18 -8 -13 0 -21 3 -18 8 2 4 10 7 18 7 8 0 16 -3 18 -7z
m-92 -30 c12 -16 12 -17 -2 -6 -9 7 -20 9 -24 5 -5 -4 -5 -1 -1 6 9 16 11 15
27 -5z m95 -22 c0 -15 -3 -17 -18 -7 -17 10 -17 11 0 18 9 3 17 7 17 7 1 1 1
-7 1 -18z"/>
<path d="M4935 7459 c-10 -15 0 -23 62 -54 49 -25 69 -30 133 -29 77 0 154 19
145 35 -4 5 1 6 9 3 15 -6 76 24 76 37 0 18 -34 16 -77 -4 -69 -31 -227 -31
-295 0 -27 12 -50 18 -53 12z m175 -69 c11 -8 7 -9 -15 -4 -37 8 -45 14 -19
14 10 0 26 -5 34 -10z"/>
<path d="M4446 7904 c-4 -9 -4 -19 -1 -22 3 -3 5 -2 5 2 0 4 9 2 19 -4 27 -14
40 9 16 27 -24 17 -32 17 -39 -3z"/>
<path d="M4245 6601 c-3 -5 3 -16 13 -23 10 -7 29 -29 42 -48 14 -19 41 -51
60 -71 44 -46 153 -168 161 -181 7 -11 29 -2 29 12 0 18 -275 320 -292 320 -4
0 -9 -4 -13 -9z"/>
<path d="M4545 6270 c-8 -13 13 -40 31 -40 17 0 17 5 4 31 -12 21 -25 25 -35
9z"/>
<path d="M5635 6321 c-3 -5 -1 -12 5 -16 5 -3 10 1 10 9 0 18 -6 21 -15 7z"/>
<path d="M5621 6284 c0 -11 3 -14 6 -6 3 7 2 16 -1 19 -3 4 -6 -2 -5 -13z"/>
<path d="M5894 6095 c0 -66 1 -92 3 -57 2 34 2 88 0 120 -2 31 -3 3 -3 -63z"/>
<path d="M5261 6384 c0 -11 3 -14 6 -6 3 7 2 16 -1 19 -3 4 -6 -2 -5 -13z"/>
<path d="M2638 5265 c-2 -2 -63 -5 -136 -6 l-132 -1 2 -44 c2 -24 8 -44 13
-44 6 0 3 -5 -5 -10 -20 -13 259 -14 293 -1 47 18 45 83 -3 100 -16 5 -30 8
-32 6z"/>
<path d="M5640 9110 c0 -5 5 -10 11 -10 5 0 7 5 4 10 -3 6 -8 10 -11 10 -2 0
-4 -4 -4 -10z"/>
<path d="M6030 8619 c0 -5 5 -7 10 -4 6 3 10 8 10 11 0 2 -4 4 -10 4 -5 0 -10
-5 -10 -11z"/>
<path d="M2848 8503 c6 -2 18 -2 25 0 6 3 1 5 -13 5 -14 0 -19 -2 -12 -5z"/>
<path d="M2800 8466 c0 -10 28 -13 41 -5 10 6 7 9 -13 9 -16 0 -28 -2 -28 -4z"/>
<path d="M2333 7683 c-7 -2 -13 -13 -13 -24 0 -10 -5 -19 -11 -19 -5 0 -7 6
-4 13 4 6 0 4 -8 -6 -25 -30 -6 -107 26 -107 6 0 4 6 -5 13 -21 16 -32 54 -18
62 6 4 10 3 9 -2 -4 -23 3 -25 14 -3 7 14 21 26 32 28 11 2 27 6 35 9 8 3 22
5 30 4 10 -1 7 6 -9 19 -22 19 -52 24 -78 13z"/>
<path d="M7818 7679 c-6 -4 -8 -14 -5 -22 3 -9 -1 -18 -10 -21 -8 -4 -13 -13
-10 -21 4 -9 1 -12 -9 -8 -7 3 -14 2 -14 -1 0 -11 30 -66 36 -66 3 0 1 8 -5
17 -6 11 -6 24 0 35 5 10 7 18 4 18 -4 0 0 7 9 15 8 9 12 23 9 32 -5 12 -2 15
10 10 9 -3 17 -2 17 3 0 5 8 11 18 13 9 3 4 4 -11 4 -15 -1 -33 -4 -39 -8z"/>
<path d="M7780 7645 c-7 -9 -11 -17 -9 -20 3 -2 10 5 17 15 14 24 10 26 -8 5z"/>
<path d="M2539 6853 c-13 -16 -12 -17 4 -4 9 7 17 15 17 17 0 8 -8 3 -21 -13z"/>
<path d="M7515 6118 c-6 -13 -23 -29 -38 -36 -24 -12 -28 -18 -22 -40 4 -15
11 -29 16 -30 5 -2 6 -8 3 -13 -10 -17 14 -36 46 -37 17 0 28 4 25 9 -11 17
48 9 62 -8 8 -10 12 -12 8 -5 -3 6 1 19 9 28 20 20 20 73 0 102 -12 17 -12 22
-2 22 10 0 10 2 -1 9 -7 5 -22 6 -32 4 -10 -3 -19 0 -19 6 0 21 -45 12 -55
-11z m-5 -77 c0 -6 -4 -13 -10 -16 -5 -3 -10 1 -10 9 0 9 5 16 10 16 6 0 10
-4 10 -9z m53 -27 c-8 -21 -43 -17 -43 5 0 14 6 17 24 14 16 -3 23 -10 19 -19z"/>
<path d="M7486 6114 c-23 -23 -20 -30 4 -9 11 10 20 20 20 22 0 7 -9 2 -24
-13z"/>
<path d="M7299 6081 c-14 -5 -36 -14 -49 -21 -14 -7 -36 -13 -50 -14 l-25 -1
-3 -238 c-2 -190 0 -238 10 -234 7 2 12 15 11 28 -1 13 1 18 3 12 3 -7 14 -13
24 -13 28 0 140 51 134 61 -3 5 1 6 9 4 21 -9 99 29 86 42 -8 8 -7 13 1 18 6
4 17 2 23 -4 9 -9 7 -11 -8 -6 -15 5 -17 4 -6 -3 17 -12 43 -4 34 11 -4 6 -1
7 6 2 19 -11 91 25 91 46 0 10 4 20 9 24 6 3 8 -3 6 -14 -2 -14 1 -18 10 -14
8 2 13 10 12 16 -1 6 9 16 23 24 14 7 19 13 11 13 -8 0 -12 3 -8 6 3 3 11 3
18 -1 8 -6 5 -14 -12 -27 -20 -16 -17 -16 18 3 l42 22 -26 20 c-23 19 -30 19
-82 9 -81 -17 -149 4 -208 64 -38 39 -43 50 -43 90 0 44 -14 85 -28 83 -4 0
-19 -4 -33 -8z m392 -248 c13 -16 12 -17 -3 -4 -10 7 -18 15 -18 17 0 8 8 3
21 -13z"/>
<path d="M2225 6039 c-3 -4 2 -6 10 -5 21 3 28 13 10 13 -9 0 -18 -4 -20 -8z"/>
<path d="M2638 5873 c7 -3 16 -2 19 1 4 3 -2 6 -13 5 -11 0 -14 -3 -6 -6z"/>
<path d="M7900 5820 c0 -6 -4 -8 -10 -5 -17 10 -34 -6 -19 -17 11 -8 10 -9 -3
-4 -22 7 -82 -18 -108 -44 -11 -11 -129 -67 -262 -126 -134 -58 -261 -113
-283 -123 -22 -10 -97 -42 -167 -71 -75 -31 -125 -57 -121 -63 3 -5 1 -7 -5
-3 -13 8 -83 -24 -76 -36 3 -4 10 -5 16 -2 7 4 8 2 4 -4 -4 -6 7 -39 24 -72
17 -33 44 -101 61 -151 56 -167 39 -284 -53 -371 -24 -22 -36 -37 -28 -32 12
6 13 5 3 -7 -10 -13 -9 -23 6 -52 10 -20 22 -33 26 -29 5 4 5 2 2 -4 -4 -6 5
-35 19 -63 13 -29 36 -98 51 -154 l26 -102 4 -532 c5 -551 6 -563 43 -518 9
10 9 15 1 15 -6 0 -11 -4 -11 -10 0 -5 -5 -10 -11 -10 -8 0 -8 5 1 15 7 8 23
15 37 15 13 0 21 4 18 10 -3 5 6 12 20 16 27 7 35 34 10 34 -11 0 -15 11 -15
38 0 47 10 83 20 77 5 -3 7 3 5 12 -1 10 6 33 16 51 23 40 23 40 3 44 -10 2
-18 15 -20 32 -2 15 0 25 3 22 4 -4 16 13 27 36 12 24 34 59 49 79 15 20 30
47 32 60 3 13 11 29 18 34 15 11 15 11 23 42 4 13 10 21 14 18 3 -2 6 9 5 25
-1 16 2 27 7 24 4 -3 8 0 8 6 0 7 6 10 13 7 16 -6 32 17 41 60 4 17 14 37 22
44 18 15 18 -2 -1 -27 -8 -10 -14 -23 -15 -29 0 -5 10 5 21 23 19 29 30 37 52
33 4 0 7 4 7 9 0 7 7 7 21 0 12 -7 18 -18 15 -26 -4 -9 -2 -12 5 -8 6 3 19 -3
30 -15 11 -12 26 -21 35 -21 33 0 97 55 190 162 54 62 112 124 129 138 17 14
42 35 55 48 13 12 30 22 37 22 7 0 13 5 13 10 0 6 6 10 13 10 7 0 26 12 43 28
17 15 40 32 50 38 11 7 18 19 16 29 -2 10 1 14 7 10 6 -3 18 0 26 9 11 11 12
16 2 20 -6 3 -3 4 9 1 24 -6 50 18 38 36 -5 9 -2 10 9 6 10 -3 17 -2 17 3 0
13 37 50 49 50 5 0 18 19 30 43 18 37 19 46 8 78 -7 20 -30 56 -50 80 -40 47
-41 50 -20 169 13 79 15 158 3 180 -11 21 -10 26 4 35 10 5 27 18 38 28 12 9
27 17 34 17 7 0 25 10 41 23 15 13 45 31 65 41 32 14 58 41 58 59 0 9 -66 74
-97 95 -18 13 -39 20 -50 16 -13 -4 -14 -3 -5 4 12 8 12 13 1 30 -8 12 -20 24
-29 27 -10 4 -9 -1 5 -17 11 -13 7 -10 -10 7 -16 16 -33 29 -38 27 -5 -1 -6 2
-3 7 3 5 -18 29 -46 52 -29 24 -55 46 -58 49 -9 10 -146 124 -185 155 -45 36
-55 40 -55 25z m76 -115 c25 -25 50 -43 55 -39 5 3 8 0 7 -8 -2 -7 3 -12 10
-10 8 1 11 -1 8 -6 -6 -10 164 -159 176 -154 5 1 8 -3 8 -9 0 -5 5 -7 12 -3 6
4 8 3 5 -3 -7 -10 10 -30 26 -32 18 -2 3 -51 -17 -51 -8 0 -54 -16 -101 -35
l-87 -35 -121 34 c-67 19 -175 49 -240 67 -116 31 -118 32 -100 51 10 11 37
31 60 45 24 14 41 29 37 34 -3 5 3 6 12 2 12 -4 15 -3 10 5 -5 8 -1 10 10 5
13 -5 15 -3 9 7 -5 8 -4 11 2 7 6 -4 37 9 69 29 33 20 74 45 92 56 17 11 32
25 32 31 0 8 -3 8 -8 2 -4 -5 -19 -11 -33 -12 -37 -2 -130 -43 -123 -54 3 -5
-1 -6 -9 -3 -8 3 -54 -13 -103 -34 -49 -22 -152 -65 -229 -97 -270 -111 -343
-159 -361 -237 l-7 -33 -9 35 c-5 19 -11 51 -14 72 l-5 36 77 36 c42 20 104
48 138 62 75 32 159 68 393 173 172 77 248 109 265 110 5 1 28 -19 54 -44z
m-86 -40 c0 -2 -9 -9 -19 -15 -14 -7 -22 -7 -27 2 -4 6 -3 8 4 4 6 -3 13 -2
17 4 6 10 25 14 25 5z m337 -137 c-3 -8 -6 -5 -6 6 -1 11 2 17 5 13 3 -3 4
-12 1 -19z m-577 -148 c19 -6 44 -15 55 -20 11 -5 31 -12 45 -16 14 -4 34 -13
45 -21 19 -13 18 -14 -10 -8 -106 24 -222 61 -240 78 -13 12 57 3 105 -13z
m739 -34 c9 -11 8 -17 -8 -28 -12 -8 -19 -17 -17 -19 2 -2 -5 -4 -17 -5 -20
-1 -133 -46 -477 -189 -58 -24 -138 -56 -178 -72 -39 -16 -69 -33 -65 -38 5
-4 2 -5 -5 -1 -7 4 -64 -14 -133 -43 -66 -28 -126 -51 -133 -51 -7 0 -18 12
-24 26 -7 14 -17 22 -22 19 -6 -4 -9 -3 -8 2 1 4 -4 18 -11 31 -12 23 -13 23
-34 5 -22 -18 -22 -18 -5 2 12 15 14 25 6 38 -19 36 0 27 55 -23 l55 -50 41
16 c23 9 41 20 41 26 0 5 4 7 9 4 4 -3 46 11 92 30 46 20 122 51 169 69 154
60 220 91 213 100 -5 4 -2 5 5 1 17 -10 276 95 259 106 -8 5 -5 8 8 6 11 0 29
0 40 1 17 1 18 3 5 12 -13 9 -12 10 2 5 10 -3 37 3 60 14 53 23 62 24 77 6z
m-796 -10 c32 -6 54 -16 50 -20 -4 -5 -2 -6 5 -2 7 4 18 3 25 -3 7 -5 28 -12
47 -14 19 -2 46 -9 59 -16 12 -7 32 -11 42 -8 12 3 17 1 12 -6 -4 -6 0 -8 10
-4 9 3 19 2 22 -3 9 -15 27 -12 19 3 -5 9 -4 9 5 1 7 -7 11 -20 9 -30 -3 -16
-13 -19 -70 -19 -37 0 -70 -4 -74 -8 -14 -14 -26 -7 -14 8 10 12 9 16 -4 21
-9 3 -23 4 -31 0 -8 -3 -15 -2 -15 3 0 5 -52 24 -115 42 -65 19 -115 38 -115
45 0 26 45 29 133 10z m597 4 c-8 -5 -19 -10 -25 -10 -5 0 -3 5 5 10 8 5 20
10 25 10 6 0 3 -5 -5 -10z m-706 -71 c15 -5 33 -6 39 -2 5 3 7 1 4 -5 -8 -11
45 -23 111 -24 26 0 39 -4 35 -11 -4 -7 5 -8 27 -4 26 6 31 4 26 -8 -7 -19 24
-36 51 -29 12 3 24 1 28 -6 4 -7 2 -10 -6 -8 -8 1 -27 -6 -42 -16 -31 -21 -20
-23 -207 33 -52 16 -121 37 -152 46 -31 9 -59 23 -62 31 -3 8 -2 13 2 11 4 -3
16 -1 27 3 22 8 74 3 119 -11z m591 -9 c-3 -5 -12 -10 -18 -10 -7 0 -6 4 3 10
19 12 23 12 15 0z m-749 -35 c-4 -12 1 -14 25 -10 19 3 28 2 24 -4 -3 -6 11
-13 32 -17 21 -4 43 -11 50 -16 7 -6 30 -11 52 -11 21 -1 37 -5 34 -9 -2 -5 6
-8 19 -8 14 0 32 -6 42 -13 17 -13 17 -14 1 -30 -15 -16 -15 -17 4 -17 11 0
22 -4 25 -8 5 -8 -76 6 -134 22 -19 6 -21 5 -10 -3 13 -9 13 -11 -2 -11 -10 0
-18 7 -18 16 0 13 -7 15 -32 10 -22 -4 -28 -3 -19 3 12 8 8 11 -15 16 -16 4
-39 11 -52 16 -13 5 -32 9 -42 9 -33 0 -71 22 -65 38 4 10 0 12 -10 8 -9 -3
-13 -2 -10 3 3 6 15 10 28 10 12 0 32 1 45 1 12 0 22 5 22 10 0 6 3 10 6 10 3
0 4 -7 0 -15z m531 -61 c-3 -3 -12 -4 -19 -1 -8 3 -5 6 6 6 11 1 17 -2 13 -5z
m-501 -59 c62 -20 115 -33 136 -31 23 2 35 -1 35 -9 0 -7 -6 -11 -13 -8 -8 3
-30 -5 -49 -17 -25 -16 -44 -20 -63 -16 -15 4 -34 8 -42 9 -8 1 -17 5 -20 8
-3 4 -27 18 -55 31 -35 16 -51 30 -53 46 -4 29 4 28 124 -13z m752 18 c-1 -5
2 -30 6 -58 10 -67 -9 -108 -74 -164 -36 -32 -47 -47 -38 -52 10 -7 10 -11 -1
-21 -9 -8 -11 -9 -7 -1 3 6 2 14 -3 17 -14 9 -42 -5 -34 -17 3 -5 2 -7 -4 -4
-6 4 -37 -3 -69 -14 -134 -48 -345 -29 -452 39 l-23 15 33 12 c122 45 250 95
433 169 204 83 237 94 233 79z m-892 -12 c-3 -5 1 -12 10 -15 9 -4 14 -9 11
-13 -9 -8 -38 17 -31 28 3 5 7 9 10 9 3 0 3 -4 0 -9z m459 -11 c4 -6 -1 -7
-11 -3 -13 5 -15 3 -9 -7 5 -9 4 -11 -4 -6 -6 4 -9 12 -6 17 8 12 22 12 30 -1z
m-525 -46 c0 -25 51 -105 62 -97 7 3 8 1 4 -5 -9 -15 99 -122 155 -153 80 -45
129 -61 145 -48 8 7 17 9 21 5 3 -3 0 -6 -7 -6 -9 0 -10 -3 -4 -9 12 -13 125
-31 190 -31 111 0 305 79 369 150 23 25 45 26 45 2 0 -23 -55 -107 -82 -126
-12 -9 -17 -19 -13 -27 5 -7 4 -10 -2 -6 -5 3 -35 -7 -66 -23 -175 -88 -428
-76 -621 28 -28 15 -75 51 -107 79 -31 29 -60 49 -64 45 -5 -4 -5 -1 -1 6 5 8
1 21 -7 30 -28 32 -49 113 -42 164 4 27 11 45 16 42 5 -3 9 -12 9 -20z m90
-30 c0 -8 -19 -13 -24 -6 -3 5 1 9 9 9 8 0 15 -2 15 -3z m890 -54 c0 -5 -5
-10 -11 -10 -5 0 -7 5 -4 10 3 6 8 10 11 10 2 0 4 -4 4 -10z m-1016 -127 c6
-15 9 -15 17 -3 9 12 10 11 5 -4 -7 -21 11 -49 27 -39 6 3 7 1 3 -5 -9 -15 55
-75 106 -101 21 -10 34 -22 30 -26 -4 -5 1 -5 11 -2 10 4 16 3 13 -1 -8 -13
61 -42 81 -36 14 5 15 4 4 -4 -26 -19 114 -53 241 -59 117 -5 234 9 223 28 -3
5 1 6 9 3 8 -3 39 6 70 20 31 14 59 26 62 26 13 0 73 53 69 60 -3 5 0 12 6 16
8 5 9 3 4 -6 -6 -10 -4 -12 8 -7 44 17 8 -27 -93 -112 -60 -51 -107 -98 -103
-104 3 -6 1 -7 -5 -3 -7 4 -12 2 -12 -4 0 -6 -4 -9 -9 -6 -12 8 -39 -26 -36
-46 2 -9 -4 -23 -13 -30 -13 -11 -14 -11 -7 2 14 23 15 42 2 37 -7 -3 -11 -10
-9 -16 1 -7 -1 -10 -6 -7 -5 3 -22 -9 -38 -26 -20 -22 -24 -29 -11 -25 11 4
16 3 12 -4 -4 -6 -13 -8 -21 -5 -9 3 -37 -16 -71 -49 -32 -30 -60 -55 -63 -55
-3 0 -18 -12 -33 -26 -16 -14 -31 -23 -35 -19 -4 4 -1 10 6 12 22 8 13 25 -10
18 -16 -6 -20 -4 -15 8 4 12 2 14 -10 10 -11 -4 -14 -2 -9 5 4 7 3 12 -3 12
-6 0 -25 14 -42 31 -25 24 -34 28 -40 17 -7 -10 -9 -9 -9 4 0 9 -5 20 -12 24
-7 5 -9 2 -4 -7 4 -8 0 -5 -8 5 -13 16 -19 17 -28 8 -7 -7 -16 -12 -22 -12 -5
0 -2 6 7 13 18 13 11 33 -13 39 -8 2 -20 9 -26 17 -12 16 -49 7 -39 -9 3 -5 1
-10 -5 -10 -6 0 -8 -5 -4 -12 4 -7 3 -8 -5 -4 -9 6 -9 13 3 31 14 21 13 24 -2
38 -11 10 -22 13 -33 7 -11 -7 -16 -5 -16 5 0 8 5 12 11 9 6 -3 0 4 -14 15
-14 11 -32 19 -40 18 -8 -1 -14 4 -13 10 2 7 -9 19 -25 27 -34 18 -92 72 -92
85 0 5 4 12 9 15 10 7 31 120 40 214 2 18 18 15 25 -5z m-171 -108 c-3 -9 -8
-14 -10 -11 -3 3 -2 9 2 15 9 16 15 13 8 -4z m714 9 c-3 -3 -12 -4 -19 -1 -8
3 -5 6 6 6 11 1 17 -2 13 -5z m573 -59 c20 -24 4 -47 -77 -115 -42 -36 -91
-78 -108 -95 -16 -16 -86 -79 -155 -140 -181 -159 -187 -165 -249 -222 -31
-29 -61 -53 -66 -53 -6 0 -68 43 -139 95 -119 88 -137 100 -159 96 -5 -1 -6 3
-3 8 7 11 -81 78 -96 73 -5 -1 -7 2 -4 7 8 13 -21 34 -35 25 -8 -4 -9 -3 -5 4
4 6 -6 19 -21 29 -15 10 -45 33 -65 52 -65 59 -42 101 27 50 21 -16 42 -29 46
-29 5 0 20 -11 35 -25 54 -50 174 -124 191 -119 14 5 15 4 4 -4 -15 -11 2 -27
19 -17 6 4 9 1 8 -7 -2 -7 5 -13 14 -13 9 0 20 -4 25 -9 5 -5 2 -6 -7 -2 -8 4
-4 -1 10 -13 14 -11 37 -26 53 -32 15 -6 27 -18 27 -25 0 -8 8 -14 18 -15 10
0 12 -3 5 -6 -7 -2 -13 -8 -13 -13 0 -11 29 -40 40 -40 18 0 210 172 203 183
-3 5 -1 7 5 3 11 -7 53 27 206 168 54 50 115 105 135 121 19 17 49 44 66 62
34 36 47 40 65 18z m-295 -65 c-3 -5 -12 -10 -18 -10 -7 0 -6 4 3 10 19 12 23
12 15 0z m215 -85 c-13 -14 -26 -23 -28 -20 -4 4 38 44 47 45 3 0 -6 -11 -19
-25z m-690 -251 c0 -8 -19 -13 -24 -6 -3 5 1 9 9 9 8 0 15 -2 15 -3z m80 -68
c0 -2 -7 -7 -16 -10 -8 -3 -12 -2 -9 4 6 10 25 14 25 6z m-305 -414 c-17 -15
-18 -15 -6 0 7 9 9 23 5 30 -6 10 -4 11 7 0 11 -10 10 -15 -6 -30z"/>
<path d="M2858 4043 c7 -3 16 -2 19 1 4 3 -2 6 -13 5 -11 0 -14 -3 -6 -6z"/>
<path d="M2351 3946 c7 -7 620 -9 626 -2 3 3 -138 5 -313 6 -175 0 -316 -2
-313 -4z"/>
<path d="M2990 3936 c0 -2 7 -7 16 -10 8 -3 12 -2 9 4 -6 10 -25 14 -25 6z"/>
<path d="M3045 3850 c-3 -5 -1 -10 4 -10 6 0 11 5 11 10 0 6 -2 10 -4 10 -3 0
-8 -4 -11 -10z"/>
<path d="M2948 3543 c17 -2 47 -2 65 0 17 2 3 4 -33 4 -36 0 -50 -2 -32 -4z"/>
<path d="M6986 3044 c-4 -20 -5 -38 -3 -40 3 -3 8 11 11 32 4 20 5 38 3 40 -3
3 -8 -11 -11 -32z"/>
<path d="M6957 2932 c-9 -34 -17 -67 -16 -74 0 -7 9 16 20 52 10 36 18 69 16
74 -2 5 -11 -19 -20 -52z"/>
<path d="M2976 2638 c3 -4 -3 -11 -13 -15 -21 -7 -169 -149 -184 -175 -6 -12
-6 -18 1 -18 5 0 10 8 10 17 0 9 3 13 6 10 4 -4 14 1 23 11 9 9 25 22 36 29
11 6 19 16 18 22 -2 6 0 10 5 10 21 -4 35 4 59 29 15 15 23 20 18 12 -7 -12
-5 -12 11 1 29 25 87 41 114 31 22 -8 89 -1 123 13 10 4 17 3 17 -4 0 -6 5
-11 11 -11 6 0 9 9 6 20 -8 30 0 24 18 -14 9 -19 14 -40 10 -45 -3 -6 0 -11 7
-11 11 0 10 -2 0 -9 -11 -7 -10 -10 3 -15 24 -9 32 -7 15 4 -13 9 -13 10 0 11
8 1 18 1 23 0 12 -2 8 6 -10 20 -11 10 -14 10 -9 2 4 -8 2 -13 -5 -13 -6 0 -9
8 -6 20 3 11 1 23 -5 26 -5 3 -13 17 -18 30 -9 23 -10 24 -149 22 -77 -1 -138
-5 -135 -10z m-26 -42 c0 -3 -4 -8 -10 -11 -5 -3 -10 -1 -10 4 0 6 5 11 10 11
6 0 10 -2 10 -4z"/>
<path d="M2106 2499 c-36 -28 -36 -86 -1 -119 14 -13 28 -20 32 -17 3 4 1 7
-6 7 -7 0 -9 5 -5 12 4 7 3 8 -4 4 -20 -12 -14 33 8 64 11 15 17 29 15 32 -3
2 13 4 36 3 40 -1 40 -1 20 18 -19 19 -47 15 -35 -5 4 -7 2 -8 -5 -4 -6 4 -9
12 -6 17 11 17 -22 9 -49 -12z"/>
<path d="M8010 2501 c-32 -25 -35 -91 -4 -119 24 -23 85 -24 91 -2 4 12 2 12
-5 2 -6 -9 -18 -11 -36 -6 -23 5 -27 11 -24 37 2 22 11 35 28 44 14 7 25 18
25 25 1 14 24 12 39 -2 4 -4 0 -7 -10 -7 -11 1 -19 -4 -19 -13 0 -9 7 -14 18
-12 13 2 17 -4 16 -25 0 -25 -1 -26 -9 -8 -8 17 -8 17 -7 -7 2 -43 27 -13 27
33 0 66 -76 101 -130 60z"/>
<path d="M2316 2384 c-5 -13 -3 -14 6 -7 7 6 20 13 28 16 10 4 8 6 -6 6 -12 1
-25 -6 -28 -15z"/>
<path d="M2468 2393 c46 -2 118 -2 160 0 42 1 5 3 -83 3 -88 0 -123 -2 -77 -3z"/>
<path d="M7353 2393 c48 -2 126 -2 175 0 48 1 8 3 -88 3 -96 0 -136 -2 -87 -3z"/>
<path d="M2300 2353 c0 -6 -12 -22 -27 -37 -14 -15 -19 -24 -10 -21 19 8 51
54 43 63 -3 3 -6 1 -6 -5z"/>
<path d="M8195 2334 c-9 -15 -12 -23 -6 -20 11 7 35 46 28 46 -3 0 -12 -12
-22 -26z"/>
<path d="M6398 2229 c-21 -11 -38 -22 -38 -24 0 -8 74 6 85 16 6 6 6 12 0 18
-6 6 -25 2 -47 -10z"/>
<path d="M2866 2181 c-4 -6 -12 -9 -17 -6 -5 4 -17 1 -26 -5 -15 -9 -14 -10 6
-4 15 4 21 2 17 -4 -4 -6 7 -13 26 -15 20 -3 12 -4 -19 -4 -29 0 -56 -2 -59
-6 -15 -15 -26 -6 -13 10 13 15 12 15 -6 6 -37 -20 -97 -86 -116 -127 -20 -44
-25 -106 -9 -106 6 0 10 -18 10 -40 0 -22 -4 -40 -9 -40 -15 0 6 -51 35 -85
25 -29 25 -29 10 -3 -9 15 -16 34 -16 43 0 10 -5 13 -12 9 -7 -5 -8 -3 -3 6 5
8 8 39 6 69 -1 43 1 52 9 41 9 -11 10 -7 5 19 -6 25 -4 32 5 26 10 -6 12 -1 8
18 -3 15 -2 24 2 22 10 -6 22 24 14 36 -3 5 0 9 6 9 7 0 9 8 5 19 -3 11 0 23
6 27 9 5 10 2 6 -9 -3 -9 -2 -19 4 -22 5 -4 8 -1 7 7 -2 7 3 12 10 11 6 -2 12
1 12 6 0 5 8 12 18 14 9 2 3 3 -15 1 -22 -2 -30 1 -27 10 8 20 210 15 252 -7
17 -10 32 -15 32 -13 0 3 15 -10 33 -29 19 -19 36 -33 39 -30 3 3 5 -7 5 -22
0 -16 5 -57 10 -93 10 -59 11 -61 14 -25 1 22 2 51 1 65 -1 19 1 22 8 10 8
-12 10 -10 10 8 0 14 4 21 11 16 6 -3 3 8 -5 25 -11 20 -21 28 -31 25 -10 -4
-13 -2 -10 7 11 30 -92 119 -118 102 -5 -3 -7 -1 -4 4 8 14 -9 20 -72 29 -32
4 -51 2 -55 -5z m61 -7 c-3 -3 -12 -4 -19 -1 -8 3 -5 6 6 6 11 1 17 -2 13 -5z
m50 -10 c-3 -3 -12 -4 -19 -1 -8 3 -5 6 6 6 11 1 17 -2 13 -5z m126 -107 c-5
-8 -8 -7 -11 1 -2 7 -8 10 -13 7 -5 -4 -6 1 -3 10 5 12 10 13 20 4 8 -6 11
-16 7 -22z m30 -34 c-4 -11 -3 -14 5 -9 7 4 12 3 12 -3 0 -5 -9 -9 -20 -8 -23
1 -25 8 -8 25 16 16 19 15 11 -5z"/>
<path d="M7283 2182 c-18 -2 -33 -8 -33 -14 0 -5 7 -7 16 -4 8 3 12 2 9 -4 -6
-10 21 -15 63 -11 14 1 21 -2 18 -8 -4 -5 -1 -13 5 -17 8 -4 9 -3 5 4 -11 18
26 15 52 -4 12 -8 22 -12 22 -7 0 4 4 2 8 -4 7 -10 12 -10 26 0 16 12 16 14 2
26 -14 12 -16 11 -11 -5 4 -15 3 -14 -6 2 -16 31 -105 54 -176 46z m70 -19
c-7 -2 -21 -2 -30 0 -10 3 -4 5 12 5 17 0 24 -2 18 -5z"/>
<path d="M7185 2144 c-21 -14 -45 -32 -54 -41 -17 -17 -25 -73 -10 -73 5 0 9
5 9 11 0 5 5 7 12 3 8 -5 9 -2 5 10 -6 14 -3 17 8 12 9 -3 14 -2 11 3 -3 5 4
11 16 14 21 6 21 7 5 25 -19 20 -13 34 10 25 12 -5 12 -7 1 -14 -9 -6 -4 -9
15 -9 19 0 26 4 21 12 -5 7 -2 9 8 6 8 -4 15 0 15 7 0 9 -6 11 -16 6 -9 -5
-22 -6 -30 -3 -10 3 -7 8 10 18 13 7 19 13 13 14 -6 0 -28 -12 -49 -26z"/>
<path d="M7485 2109 c-4 -6 -5 -13 -2 -16 7 -7 27 6 27 18 0 12 -17 12 -25 -2z"/>
<path d="M3850 2104 c37 -8 88 -9 84 -2 -3 4 -26 7 -52 7 -26 -1 -40 -3 -32
-5z"/>
<path d="M7506 2091 c-4 -6 -1 -14 8 -17 21 -8 28 -34 14 -52 -11 -13 -10 -15
3 -10 13 5 16 2 11 -14 -4 -15 -7 -17 -14 -6 -7 9 -8 7 -3 -7 15 -46 17 -105
4 -141 -7 -22 -14 -45 -15 -53 -4 -21 -38 -64 -54 -69 -10 -4 -9 0 3 12 26 27
20 29 -13 5 -16 -12 -27 -26 -24 -31 3 -4 10 -5 16 -2 6 4 8 -1 3 -16 -8 -25
-2 -23 53 18 21 15 31 30 28 39 -4 8 -1 11 5 8 6 -4 17 1 24 11 14 19 21 43 9
31 -4 -3 -13 0 -20 8 -17 17 -18 29 -1 18 16 -10 37 -13 38 -5 0 4 3 18 6 32
9 48 2 142 -13 173 -24 45 -60 81 -68 68z m55 -234 c-6 -8 -7 -18 -3 -22 4 -5
2 -5 -5 -1 -14 8 -6 36 9 36 7 0 6 -5 -1 -13z"/>
<path d="M7090 2050 c-6 -11 -7 -20 -3 -20 4 0 3 -4 -3 -8 -16 -11 -34 -71
-33 -111 1 -35 2 -35 9 9 10 59 28 103 38 96 5 -3 9 8 9 24 0 35 -3 37 -17 10z"/>
<path d="M7503 2036 c0 -8 6 -12 14 -9 7 3 13 9 13 14 0 5 -6 9 -13 9 -8 0
-14 -6 -14 -14z"/>
<path d="M6095 2020 c-16 -7 -17 -9 -3 -9 9 -1 20 4 23 9 7 11 7 11 -20 0z"/>
<path d="M2830 1975 c-13 -14 -20 -25 -15 -25 4 0 15 8 24 18 9 11 23 21 31
25 13 5 13 6 -1 6 -8 1 -26 -10 -39 -24z"/>
<path d="M3397 1975 c-15 -14 -24 -25 -19 -25 5 0 19 11 32 25 30 32 23 32
-13 0z"/>
<path d="M6028 1993 c7 -3 16 -2 19 1 4 3 -2 6 -13 5 -11 0 -14 -3 -6 -6z"/>
<path d="M4223 1973 c9 -2 23 -2 30 0 6 3 -1 5 -18 5 -16 0 -22 -2 -12 -5z"/>
<path d="M4290 1961 c28 -8 278 -15 270 -8 -3 2 -70 7 -150 9 -80 3 -134 3
-120 -1z"/>
<path d="M4840 1961 c-28 -4 3 -7 80 -7 91 0 111 1 75 7 -58 8 -93 8 -155 0z"/>
<path d="M5200 1960 l-85 -6 108 -2 c66 -1 107 2 107 8 0 6 -10 9 -22 8 -13
-1 -61 -5 -108 -8z"/>
<path d="M5360 1960 c0 -5 7 -7 15 -4 8 4 15 8 15 10 0 2 -7 4 -15 4 -8 0 -15
-4 -15 -10z"/>
<path d="M4733 1953 c9 -2 25 -2 35 0 9 3 1 5 -18 5 -19 0 -27 -2 -17 -5z"/>
<path d="M3265 1940 c-8 -13 35 -13 55 0 11 7 7 10 -17 10 -17 0 -35 -4 -38
-10z"/>
<path d="M2641 1864 c0 -11 3 -14 6 -6 3 7 2 16 -1 19 -3 4 -6 -2 -5 -13z"/>
<path d="M7061 1855 c-2 -66 118 -204 179 -204 9 0 4 8 -12 20 -16 11 -28 25
-28 31 0 7 5 6 14 -1 8 -7 32 -14 53 -16 34 -4 35 -3 13 6 -14 6 -34 12 -45
15 -11 2 -26 13 -34 24 -7 11 -18 20 -23 20 -6 0 -6 -6 1 -14 9 -11 8 -15 -6
-20 -12 -5 -26 2 -44 22 -16 17 -25 33 -22 36 4 3 1 6 -6 6 -7 0 -9 5 -6 10 3
6 2 10 -3 10 -6 0 -14 17 -20 38 -5 20 -10 28 -11 17z m132 -150 c-3 -9 -8
-14 -10 -11 -3 3 -2 9 2 15 9 16 15 13 8 -4z"/>
<path d="M3087 1791 c-9 -15 -13 -31 -9 -35 4 -4 0 -6 -8 -4 -9 2 -14 -3 -12
-12 2 -8 0 -12 -3 -8 -4 4 -22 0 -39 -9 -17 -9 -56 -22 -86 -29 -44 -10 -48
-12 -22 -13 40 -1 39 -23 -3 -33 -17 -4 -5 -5 28 -2 69 5 108 23 160 73 36 34
81 101 59 87 -6 -4 -13 -2 -17 4 -11 18 -30 11 -48 -19z m34 -4 c-10 -9 -11
-8 -5 6 3 10 9 15 12 12 3 -3 0 -11 -7 -18z m-141 -102 c0 -2 -6 -8 -13 -14
-10 -8 -14 -7 -14 2 0 8 6 14 14 14 7 0 13 -1 13 -2z"/>
<path d="M7661 1804 c0 -11 3 -14 6 -6 3 7 2 16 -1 19 -3 4 -6 -2 -5 -13z"/>
<path d="M7597 1685 c-42 -49 -43 -61 -2 -17 24 24 50 62 43 62 -2 -1 -20 -21
-41 -45z"/>
<path d="M3180 1680 c-12 -16 -19 -30 -16 -30 2 0 14 14 26 30 12 17 19 30 16
30 -2 0 -14 -13 -26 -30z"/>
<path d="M2825 1650 c11 -5 27 -9 35 -9 13 -1 13 0 0 9 -8 5 -24 9 -35 9 l-20
0 20 -9z"/>
<path d="M5118 1613 c7 -3 16 -2 19 1 4 3 -2 6 -13 5 -11 0 -14 -3 -6 -6z"/>
<path d="M7506 1605 c-11 -8 -15 -15 -9 -15 6 0 16 7 23 15 16 19 11 19 -14 0z"/>
<path d="M5058 1583 c-26 -30 -38 -60 -37 -90 2 -27 2 -27 6 -3 6 36 24 80 33
80 4 0 10 7 14 15 7 20 3 19 -16 -2z"/>
</g>
</svg>
